<?xml version="1.0" encoding="utf-8"?>
<!-- Generator: Adobe Illustrator 21.1.0, SVG Export Plug-In . SVG Version: 6.00 Build 0)  -->
<svg version="1.1" id="Layer_1" xmlns="http://www.w3.org/2000/svg" xmlns:xlink="http://www.w3.org/1999/xlink" x="0px" y="0px"
	 viewBox="0 0 715.3 317.8" style="enable-background:new 0 0 715.3 317.8;" xml:space="preserve">
<style type="text/css">
	.st0{fill:none;stroke:#000000;stroke-width:0.7;stroke-linecap:round;stroke-linejoin:round;}
	.st1{fill:none;stroke:#000000;stroke-width:1.5;stroke-linecap:round;stroke-linejoin:round;}
	.st2{fill:none;stroke:#000000;stroke-width:1.5;stroke-opacity:0.99;}
	.st3{fill:none;stroke:#000000;stroke-width:0.38;stroke-opacity:0.99;}
	.st4{fill:none;stroke:#000000;stroke-width:0.7;stroke-opacity:0.99;}
</style>
<title>f5</title>
<path id="_534" class="st0" d="M385.5,221.9c0-8.8-7.7-15.4-15.4-18.2c-11.7-4.1-26.1-2.5-35.2,6.4c-3.2,3.1-5.1,7.3-5.2,11.8"/>
<path id="_535" class="st0" d="M329.7,221.9c0.2,6.6,6.5,11,12.2,13.1c11,4.1,23.2,3.7,34-1.1c4.6-2.4,9.6-6.4,9.6-12.1"/>
<path id="_536" class="st1" d="M315.3,220.7c0.1,8.9,7.4,15.7,14.8,19.4c14.3,7.1,31.4,7.8,46.6,3.4c9-2.8,18.6-8,22.2-17.3
	c0.7-1.8,1-3.7,1.1-5.6"/>
<path id="_537" class="st1" d="M315.3,220.7l0.1-43.2"/>
<path id="_538" class="st1" d="M400,220.7v-41.6"/>
<path id="_539" class="st0" d="M357.6,244.4c-9.6-0.2-19.8-1.9-27.9-7.6c-5.8-4.1-7.4-11.5-7.5-18.2c-0.1-8.2-0.6-17.2,4.2-24.2
	c5.7-7.2,15.4-9,24.1-9.2c2.4-0.1,4.7-0.1,7.1-0.1"/>
<path id="_540" class="st0" d="M357.6,244.4c9.8-0.2,20.1-2,28.2-7.9c6-4.5,7.2-12.6,7.2-19.7c0-8,0.4-16.9-5-23.3
	c-6.5-7.3-16.9-8.4-26.1-8.5h-4.4"/>
<path id="_541" class="st0" d="M326.5,233.6h12.2"/>
<path id="_543" class="st0" d="M336.6,208.5l-12.2-10.4"/>
<path id="_544" class="st0" d="M347.8,202.9v-17.6"/>
<path id="_545" class="st0" d="M376.6,233.6h12.1"/>
<path id="_546" class="st0" d="M347.8,197.2c-5.8,1.1-10.7,4.2-14.9,8.1"/>
<path id="_547" class="st0" d="M347.8,193.3c-6.8,1.3-13,4.7-17.7,9.7"/>
<path id="_548" class="st0" d="M347.8,190.8c-2.5,0.4-5.1,1.1-7.5,1.8"/>
<path id="_549" class="st1" d="M379.6,191.6c-0.3,0-0.6,0.1-0.8,0.3c-0.2,0.2-0.3,0.5-0.3,0.8c0,0.6,0.5,1.1,1.1,1.1
	c0.6,0,1.1-0.5,1.1-1.1c0-0.3-0.1-0.6-0.3-0.8C380.2,191.7,379.9,191.6,379.6,191.6z"/>
<path id="_551" class="st0" d="M367.5,190.8c2.5,0.5,5.1,1.1,7.5,1.8"/>
<path id="_552" class="st0" d="M367.5,193.3c6.8,1.3,13,4.7,17.7,9.7"/>
<path id="_553" class="st0" d="M367.5,197.2c5.2,1.1,10.1,3.6,13.9,7.3l0.5,0.4l0.5,0.4"/>
<path id="_554" class="st0" d="M367.5,202.9v-17.6"/>
<path id="_555" class="st0" d="M378.6,208.5l12.3-10.4"/>
<path id="_557" class="st1" d="M335.7,191.6c-0.6,0-1.2,0.5-1.2,1.1c0,0,0,0,0,0.1c0,0.3,0.1,0.6,0.3,0.8c0.2,0.2,0.5,0.3,0.8,0.3
	c0.6,0,1.1-0.5,1.1-1.1c0-0.3-0.1-0.6-0.3-0.8C336.3,191.7,336,191.6,335.7,191.6z"/>
<path id="_558" class="st0" d="M382.1,196.6c1.9,1.3,3.6,2.9,4.9,4.8"/>
<path id="_559" class="st0" d="M333.1,196.6c-1.9,1.3-3.5,2.9-4.9,4.8"/>
<path id="_560" class="st1" d="M394.1,153.7c-2.2-14.9-14.5-27.6-29.3-30.3c-14.5-3-30.4,3.7-38.3,16.2c-2.8,4.3-4.6,9.1-5.5,14.1"
	/>
<path id="_561" class="st1" d="M357.6,167.4h12.5"/>
<path id="_562" class="st1" d="M370.4,167.4c7.1-0.3,14.5-1.9,20.3-6.1c2.3-1.8,4.1-4.6,3.5-7.6"/>
<path id="_563" class="st1" d="M357.6,167.4h-12.5"/>
<path id="_564" class="st1" d="M344.9,167.4c-7.3-0.3-15-1.9-20.8-6.6c-2.2-1.7-3.4-4.4-3-7.2"/>
<path id="_565" class="st1" d="M400,179.2c0-7.1-3.1-13.9-8.4-18.7"/>
<path id="_566" class="st0" d="M399.9,178.2c0-4.1-4.1-6.6-7.4-8.1c-7-2.9-14.7-2.7-22.2-2.7"/>
<path id="_567" class="st0" d="M393.4,162.2c-6.7,4.5-15.1,5.1-23,5.2"/>
<path id="_568" class="st1" d="M376.1,243.9h21.2"/>
<path id="_569" class="st1" d="M401.9,240v-52.7"/>
<path id="_570" class="st1" d="M401.9,187.3h11"/>
<path id="_571" class="st1" d="M401.9,240c15.3-1.9,26.8-14.8,27-30.1"/>
<path id="_572" class="st1" d="M429,203.7c0.1-5.6-2.1-11.1-6-15.1c-2.2-2.3-4.9-4.1-7.9-5.2"/>
<path id="_573" class="st1" d="M428.9,209.9l0.1-6.2"/>
<path id="_574" class="st1" d="M410.9,179.3c-2-4.9-6.4-8.3-11.7-9l-0.5-0.1l-0.5-0.1"/>
<path id="_575" class="st1" d="M410.9,179.3c0.8,1.9,2.3,3.4,4.2,4.1"/>
<path id="_576" class="st1" d="M401.9,235.7c6.2-0.5,12-3.1,16.4-7.4c10.4-10.1,10.7-26.8,0.6-37.3c-1-1-2-1.9-3.1-2.7"/>
<path id="_577" class="st1" d="M415.8,188.3c-0.8-0.6-1.8-0.9-2.8-1"/>
<path id="_578" class="st1" d="M401.9,229.2h5.8v-3.1h-5.8"/>
<path id="_579" class="st0" d="M315.3,199.6h8.5"/>
<path id="_580" class="st0" d="M391.4,199.6h8.6"/>
<path id="_581" class="st1" d="M406.7,243.9c5.7,0,10.4-4.6,10.5-10.3"/>
<path id="_582" class="st1" d="M404.4,235.3v-6.2"/>
<path id="_583" class="st1" d="M310.9,235.3v-48.1"/>
<path id="_584" class="st1" d="M298.1,233.6c0.1,5.7,4.8,10.3,10.5,10.3"/>
<path id="_585" class="st1" d="M302.4,187.3l-1.5,0.3l-1.3,0.7"/>
<path id="_586" class="st1" d="M299.5,188.3c-11.7,8.7-14,25.2-5.3,36.9c4.4,5.9,11.2,9.7,18.6,10.4l0.6,0.1"/>
<path id="_587" class="st1" d="M300.1,183.4c1.9-0.8,3.4-2.3,4.3-4.1"/>
<path id="_588" class="st1" d="M286.4,209.9l-0.1-6.2"/>
<path id="_589" class="st1" d="M300.1,183.4c-8.2,3.1-13.7,10.9-13.8,19.7v0.6"/>
<path id="_590" class="st1" d="M286.4,209.9c0,12.7,8.8,24.9,21,28.8c2,0.6,4,1.1,6,1.4"/>
<path id="_591" class="st1" d="M313.3,187.3h-11"/>
<path id="_592" class="st1" d="M313.3,240v-52.7"/>
<path id="_593" class="st1" d="M315.3,220.7v-41.6"/>
<path id="_594" class="st1" d="M317,170.2c-5.6,0.5-10.4,4-12.5,9.1"/>
<path id="_595" class="st1" d="M339.1,243.9h-30.5"/>
<path id="_596" class="st1" d="M323.7,160.5c-5.3,4.8-8.4,11.6-8.4,18.7"/>
<path id="_597" class="st0" d="M315.3,178.2c0.1-4.5,3.1-6.5,8.3-8.5s14.1-2.3,21.2-2.3"/>
<path id="_598" class="st0" d="M321.9,162.2c6.7,4.5,15.1,5.1,23,5.2"/>
<path id="_599" class="st1" d="M404.4,226.1v-38.8"/>
<path id="_600" class="st1" d="M400,243.9h6.7"/>
<path id="_601" class="st1" d="M400,266.8h8.4"/>
<path id="_602" class="st1" d="M408.3,266.8v2.6"/>
<path id="_603" class="st1" d="M408.3,269.4h-11"/>
<path id="_604" class="st1" d="M400,220.7v46.1"/>
<path id="_605" class="st1" d="M397.4,269.4v-39.8"/>
<path id="_606" class="st0" d="M346,185.4l0.3-17.9"/>
<path id="_607" class="st0" d="M349.6,185.1v-17.7"/>
<path id="_608" class="st0" d="M357.6,175.2H351v-4.3h6.6"/>
<path id="_609" class="st0" d="M356.6,170.9l-3.2-3.4"/>
<path id="_610" class="st1" d="M324.5,161.2c-0.9-8.9,4.4-17,10.6-22.8c6.2-5.6,14-9.9,22.5-10.1"/>
<path id="_611" class="st1" d="M357.6,129.7c-10.3,0.3-19.3,6.9-25.3,14.9c-3.8,5.1-6.5,11.2-6.6,17.6"/>
<path id="_612" class="st1" d="M357.6,129.7c10.3,0.3,19.3,6.9,25.3,14.9c3.7,5.1,6.5,11.2,6.6,17.6"/>
<path id="_613" class="st1" d="M390.7,161.2c0.9-8.7-4.2-16.8-10.3-22.5s-14.2-10.2-22.8-10.4"/>
<path id="_614" class="st0" d="M361.8,167.4l-3.2,3.4"/>
<path id="_615" class="st0" d="M357.6,175.2h6.6v-4.3h-6.6"/>
<path id="_616" class="st0" d="M365.7,185.1v-17.7"/>
<path id="_617" class="st0" d="M369.3,185.4l-0.3-17.9"/>
<path id="_618" class="st1" d="M363.5,123.1L360.9,3.9"/>
<path id="_619" class="st1" d="M351.8,123.1l2.6-119.2"/>
<path id="_620" class="st1" d="M360.9,3.9c-0.1-0.7-0.3-1.4-0.7-2c-0.5-0.7-1.4-1.1-2.3-1.2c-1-0.1-1.9,0.3-2.5,1
	c-0.4,0.4-0.6,0.9-0.8,1.4c-0.1,0.3-0.1,0.5-0.2,0.8"/>
<path id="_621" class="st0" d="M353.7,32.1h7.8"/>
<path id="_622" class="st0" d="M360.4,122.7l-0.8-90.6"/>
<path id="_623" class="st0" d="M354.9,122.7l0.8-90.6"/>
<path id="_641" class="st1" d="M683.8,226v-4.6"/>
<path id="_642" class="st1" d="M427.5,218.7c3.3,0,5.3-4.4,3-6.8c-0.5-0.4-1-0.8-1.6-1.1"/>
<path id="_643" class="st0" d="M425.5,223.5h258.3"/>
<path id="_644" class="st1" d="M428.3,218.6l255.4,2.9"/>
<path id="_645" class="st1" d="M422.5,228.2l188.3-1.6"/>
<path id="_646" class="st1" d="M698.2,223.6c-2,0-3.9,1.2-4.6,3.1c-1,2.5,0.3,5.4,2.8,6.4c2.5,1,5.4-0.3,6.4-2.8
	c1-2.5-0.3-5.4-2.8-6.4c-0.3-0.1-0.7-0.2-1-0.3C698.8,223.6,698.5,223.6,698.2,223.6z"/>
<path id="_647" class="st1" d="M703.2,223.6c0-1.2-0.5-2.3-1.2-3.2c-1.4-1.7-3.8-2.2-5.8-1.2c-1.5,0.7-2.5,2.1-2.7,3.8
	c0,0.2-0.1,0.5-0.1,0.7"/>
<path id="_648" class="st1" d="M693.3,228.5v-4.9"/>
<path id="_649" class="st1" d="M703.2,228.5v-4.9"/>
<path id="_650" class="st1" d="M698.2,223.6l15.9-16.3"/>
<path id="_651" class="st1" d="M698.2,223.6l-16.3-15.9"/>
<path id="_652" class="st1" d="M693.3,228.6l-11,11.2"/>
<path id="_653" class="st1" d="M703.2,228.4l11.4,11.1"/>
<path id="_654" class="st1" d="M693.3,228.1h-6.7v-9.3h6.7"/>
<path id="_655" class="st1" d="M686.5,228.1l-2.8-2.1"/>
<path id="_656" class="st1" d="M683.8,221.5l2.8-2.6"/>
<path id="_657" class="st1" d="M693.3,226v-7.2"/>
<path id="_659" class="st1" d="M357.6,271.3c-8.6,0-16.5,4.9-20.4,12.6c-3.6,7.1-3.2,15.5,1,22.3c6.6,10.8,20.7,14.1,31.4,7.5
	c10.8-6.6,14.1-20.7,7.5-31.4C373,275.4,365.6,271.3,357.6,271.3L357.6,271.3z"/>
<path id="_660" class="st1" d="M393.8,281.9h-16.9"/>
<path id="_661" class="st1" d="M338.4,281.9h-16.8"/>
<path id="_662" class="st1" d="M553.7,263.1c-8.3,0-15,6.8-14.9,15.1c0,8.3,6.8,15,15.1,14.9c8.3,0,15-6.8,14.9-15.1
	c0-7.1-5-13.1-11.9-14.6C555.8,263.2,554.8,263.1,553.7,263.1z"/>
<path id="_663" class="st1" d="M553.7,275.5c-3.3,0-6,2.7-6,6s2.7,6,6,6c3.3,0,6-2.7,6-6c0-1.3-0.4-2.5-1.2-3.5
	C557.4,276.4,555.6,275.5,553.7,275.5z"/>
<path id="_664" class="st1" d="M544.4,266.4l-7-6.8"/>
<path id="_665" class="st1" d="M562.8,266.2l6.8-7"/>
<path id="_666" class="st1" d="M565.8,287.3l4.3,4.2"/>
<path id="_667" class="st1" d="M542,287.5l-4.2,4.2"/>
<path id="_668" class="st1" d="M560.1,264.5v-5.8h-12.7v5.8"/>
<path id="_669" class="st1" d="M556.2,227.1v31.6h-4.8v-31.6"/>
<path id="_670" class="st1" d="M556.2,233.3h2.8v-2.8h-2.8"/>
<path id="_671" class="st1" d="M548.5,233.3l2.8,3.4"/>
<path id="_672" class="st1" d="M551.3,230.6h-2.8v2.8h2.8"/>
<path id="_673" class="st1" d="M556.2,230.6h2.8v2.8h-2.8"/>
<path id="_674" class="st1" d="M559,233.3l-2.8,3.4"/>
<path id="_675" class="st1" d="M618.6,233.9l-2.8,3.4"/>
<path id="_676" class="st1" d="M615.8,231.2h2.8v2.8h-2.8"/>
<path id="_677" class="st1" d="M610.7,231.2H608v2.8h2.8"/>
<path id="_678" class="st1" d="M608,233.9l2.8,3.4"/>
<path id="_679" class="st1" d="M615.8,233.9h2.8v-2.8h-2.8"/>
<path id="_680" class="st1" d="M615.7,226.6v25.6h-4.8v-25.5"/>
<path id="_681" class="st1" d="M619.6,258v-5.8h-12.7v5.8"/>
<path id="_682" class="st1" d="M601.5,280.9l-4.2,4.2"/>
<path id="_683" class="st1" d="M625.3,280.6l4.3,4.2"/>
<path id="_684" class="st1" d="M622.4,259.6l6.8-7"/>
<path id="_685" class="st1" d="M603.9,259.7l-7-6.8"/>
<path id="_686" class="st1" d="M613.2,268.9c-3.3,0-6,2.7-6,6c0,3.3,2.7,6,6,6c3.3,0,6-2.7,6-6c0-1.5-0.5-2.9-1.5-4
	C616.6,269.6,614.9,268.9,613.2,268.9z"/>
<path id="_687" class="st1" d="M613.2,256.5c-8.3,0-15,6.7-15,15c0,8.3,6.7,15,15,15c8.3,0,15-6.7,15-15c0-4.5-2-8.7-5.5-11.6
	C620.1,257.7,616.7,256.5,613.2,256.5z"/>
<path id="_688" class="st1" d="M610.8,226.6c0.5-1.1,1.9-3,3.3-2c0.7,0.5,1.2,1.2,1.6,1.9"/>
<path id="_689" class="st1" d="M615.7,226.6l68.1-0.6"/>
<path id="_690" class="st1" d="M418.6,232.4l112.3,6.6"/>
<path id="_691" class="st1" d="M531.2,236.5l-96.7-8.4"/>
<path id="_692" class="st1" d="M530.9,239l1-0.3l0.4-0.8l-0.3-0.9l-0.8-0.4"/>
<path id="_693" class="st1" d="M368.5,245.5v19.3h-21.6v-19.3"/>
<path id="_694" class="st1" d="M352.6,271.9v-7.1"/>
<path id="_695" class="st1" d="M362.6,264.8v7.1"/>
<path id="_696" class="st0" d="M346.8,261.4h21.6"/>
<path id="_699" class="st1" d="M184.1,236.5c-0.3,0.1-0.6,0.2-0.8,0.4c-0.2,0.3-0.3,0.6-0.3,0.9c0,0.3,0.2,0.6,0.4,0.8
	c0.3,0.2,0.6,0.3,0.9,0.3"/>
<path id="_700" class="st1" d="M184.1,236.5l96.7-8.4"/>
<path id="_701" class="st1" d="M296.6,232.4L184.3,239"/>
<path id="_702" class="st1" d="M99.6,226.6L31.5,226"/>
<path id="_703" class="st1" d="M104.4,226.6c-1.1-2.7-3.8-3-4.8-0.1"/>
<path id="_704" class="st1" d="M102,256.5c-6.6,0-13,4.6-14.5,11.1c-2.1,8,2.6,16.2,10.6,18.4c8,2.1,16.2-2.6,18.4-10.6
	c1.5-5.7-0.4-11.7-5-15.5C108.8,257.7,105.5,256.6,102,256.5z"/>
<path id="_705" class="st1" d="M102,268.9c-3.3,0-6,2.7-6,6c0,3.3,2.7,6,6,6c3.3,0,6-2.7,6-6c0-1.5-0.5-2.9-1.5-4
	C105.4,269.6,103.7,268.9,102,268.9z"/>
<path id="_706" class="st1" d="M111.3,259.7l7-6.8"/>
<path id="_707" class="st1" d="M92.9,259.6l-6.8-7"/>
<path id="_708" class="st1" d="M90,280.6l-4.3,4.2"/>
<path id="_709" class="st1" d="M113.8,280.9l4.1,4.2"/>
<path id="_710" class="st1" d="M95.6,258v-5.8h12.7v5.8"/>
<path id="_711" class="st1" d="M99.6,226.6v25.6h4.8v-25.5"/>
<path id="_712" class="st1" d="M99.4,233.9h-2.8v-2.8h2.8"/>
<path id="_713" class="st1" d="M107.2,233.9l-2.8,3.4"/>
<path id="_714" class="st1" d="M104.5,231.2h2.8v2.8h-2.8"/>
<path id="_715" class="st1" d="M99.4,231.2h-2.8v2.8h2.8"/>
<path id="_716" class="st1" d="M96.6,233.9l2.8,3.4"/>
<path id="_717" class="st1" d="M156.3,233.3l2.8,3.4"/>
<path id="_718" class="st1" d="M159.1,230.6h-2.8v2.8h2.8"/>
<path id="_719" class="st1" d="M164,230.6h2.8v2.8H164"/>
<path id="_720" class="st1" d="M166.7,233.3l-2.7,3.5"/>
<path id="_721" class="st1" d="M159.1,233.3h-2.8v-2.8h2.8"/>
<path id="_722" class="st1" d="M159.1,227.1v31.6h4.9v-31.6"/>
<path id="_723" class="st1" d="M155.2,264.5v-5.8h12.7v5.8"/>
<path id="_724" class="st1" d="M173.3,287.5l4.2,4.2"/>
<path id="_725" class="st1" d="M149.5,287.3l-4.3,4.2"/>
<path id="_726" class="st1" d="M152.4,266.2l-6.8-7"/>
<path id="_727" class="st1" d="M170.9,266.4l7-6.8"/>
<path id="_728" class="st1" d="M161.6,275.5c-3.3,0.1-5.9,2.8-5.9,6.1c0.1,3.3,2.8,5.9,6.1,5.9c0.8,0,1.6-0.2,2.3-0.5
	c3-1.4,4.3-5,2.9-8c0-0.1-0.1-0.2-0.1-0.3C165.8,276.8,163.8,275.5,161.6,275.5L161.6,275.5z"/>
<path id="_729" class="st1" d="M161.6,263.1c-8.3,0-15.1,6.7-15.1,15c0,8.3,6.7,15.1,15,15.1s15.1-6.7,15.1-15c0-1.5-0.2-3-0.7-4.4
	C174,267.5,168.2,263.1,161.6,263.1z"/>
<path id="_730" class="st1" d="M22,226v-7.2"/>
<path id="_731" class="st1" d="M31.5,221.5l-2.8-2.6"/>
<path id="_732" class="st1" d="M28.7,228.1l2.8-2.1"/>
<path id="_733" class="st1" d="M21.9,228.1h6.7v-9.3H22"/>
<path id="_734" class="st1" d="M12.1,228.4L0.8,239.5"/>
<path id="_735" class="st1" d="M22,228.6l11,11.2"/>
<path id="_736" class="st1" d="M17,223.6l16.3-15.9"/>
<path id="_737" class="st1" d="M17,223.6L1.1,207.3"/>
<path id="_738" class="st1" d="M12.1,228.5v-4.9"/>
<path id="_739" class="st1" d="M22,228.5v-4.9"/>
<path id="_740" class="st1" d="M22,223.6c0-1.2-0.5-2.3-1.2-3.2c-1.5-1.7-4-2.2-6.1-1.1c-1.4,0.8-2.4,2.2-2.5,3.8
	c0,0.2-0.1,0.4-0.1,0.6"/>
<path id="_741" class="st1" d="M17,223.6c-1.7,0-3.3,0.8-4.1,2.2c-1.5,2.3-0.8,5.3,1.5,6.8s5.3,0.8,6.8-1.5c1.5-2.3,0.8-5.3-1.5-6.8
	c-0.4-0.2-0.8-0.4-1.2-0.6C18,223.6,17.5,223.6,17,223.6z"/>
<path id="_742" class="st1" d="M292.7,228.2l-188.3-1.6"/>
<path id="_743" class="st1" d="M286.9,218.6l-255.4,2.9"/>
<path id="_744" class="st0" d="M289.8,223.5H31.5"/>
<path id="_745" class="st1" d="M31.5,226v-4.6"/>
<path id="_754" class="st1" d="M286.4,210.8c-4.1,1.6-3,7.7,1.3,7.9"/>
<path id="path5934" class="st2" d="M355.9,222.2c1.2-0.7,2.7-0.3,3.4,0.9c0.7,1.1,0.3,2.6-0.9,3.3c0,0,0,0,0,0
	c-1.2,0.7-2.7,0.3-3.4-0.9C354.3,224.3,354.7,222.8,355.9,222.2C355.8,222.2,355.8,222.2,355.9,222.2"/>
<path id="path5936" class="st3" d="M333.4,189c2.2-1.2,4.9-0.5,6.2,1.6c1.2,2.1,0.5,4.8-1.6,6c0,0-0.1,0-0.1,0.1
	c-2.2,1.2-4.9,0.5-6.2-1.6C330.5,193,331.2,190.3,333.4,189C333.3,189.1,333.3,189.1,333.4,189"/>
<path id="path5938" class="st3" d="M377.4,189c2.2-1.2,4.9-0.5,6.2,1.6c1.2,2.1,0.5,4.8-1.6,6c0,0-0.1,0-0.1,0.1
	c-2.2,1.2-4.9,0.5-6.2-1.6C374.5,193,375.2,190.3,377.4,189C377.3,189.1,377.3,189.1,377.4,189"/>
<path id="path5982" class="st4" d="M353.1,286.1c4.2-2.5,9.7-1.1,12.2,3.1c0.1,0.1,0.1,0.2,0.2,0.3c2.5,4.4,1,10-3.3,12.7
	c-4.2,2.5-9.7,1.1-12.2-3.1c-0.1-0.1-0.1-0.2-0.2-0.3C347.3,294.4,348.8,288.8,353.1,286.1"/>
</svg>
