<svg xmlns="http://www.w3.org/2000/svg" viewBox="0 0 715.27 317.83"><defs><style>.cls-1{fill:#a0a0a0;}.cls-2,.cls-3,.cls-4,.cls-5,.cls-6{fill:none;stroke:#000;}.cls-2,.cls-3{stroke-linecap:round;stroke-linejoin:round;}.cls-2,.cls-6{stroke-width:0.7px;}.cls-3,.cls-4{stroke-width:1.5px;}.cls-4,.cls-5,.cls-6{stroke-opacity:0.99;}.cls-5{stroke-width:0.38px;}</style></defs><title>f5</title><g id="Layer_2" data-name="Layer 2"><g id="Layer_1-2" data-name="Layer 1"><path id="path5971" class="cls-1" d="M310.76,235.69a38.84,38.84,0,0,1-5.63-1.86,29.45,29.45,0,0,1-7.86-5.22,26,26,0,0,1-8-25.26A27.28,27.28,0,0,1,297.06,190c2.38-2.21,3.6-3,5.13-3.25.48-.08,2.61-.15,5-.15h4.13v49.17Z"/><path id="path5973" class="cls-1" d="M426.08,212.43a27.2,27.2,0,0,1-4.76,11.79,29.42,29.42,0,0,1-10.6,8.6,36.86,36.86,0,0,1-6.11,2l-.53.11v-5.31l1.56,0c2-.06,2,.89,2-1.55a11.19,11.19,0,0,0-.11-2c-.23-.33-.79-.45-2.07-.45h-1.35V187.37l4.55.05c5.2.06,5.17.05,6.8,1.19a33.82,33.82,0,0,1,5.24,5,26.37,26.37,0,0,1,5.07,10.63,17.79,17.79,0,0,1,.41,4.45c0,1.56,0,3.25-.07,3.75h0Z"/><path id="_534" data-name="534" class="cls-2" d="M385.55,221.86c0-8.82-7.68-15.45-15.43-18.16-11.68-4.09-26.12-2.47-35.24,6.38a17.16,17.16,0,0,0-5.21,11.78"/><path id="_535" data-name="535" class="cls-2" d="M329.66,221.86c.25,6.65,6.53,11,12.2,13.15a45.29,45.29,0,0,0,34-1.06c4.63-2.42,9.64-6.35,9.64-12.09"/><path id="_536" data-name="536" class="cls-3" d="M315.29,220.74c.09,8.89,7.38,15.69,14.82,19.44,14.32,7.11,31.4,7.8,46.64,3.4,9-2.83,18.56-8,22.18-17.27a17.13,17.13,0,0,0,1.06-5.57"/><path id="_537" data-name="537" class="cls-3" d="M315.29,220.74l.06-43.17"/><path id="_538" data-name="538" class="cls-3" d="M400,220.74V179.19"/><path id="_539" data-name="539" class="cls-2" d="M357.64,244.36c-9.65-.22-19.79-1.94-27.86-7.58-5.79-4.11-7.35-11.54-7.52-18.22-.14-8.16-.64-17.21,4.23-24.23,5.69-7.19,15.4-9,24.07-9.25,2.36-.14,4.72-.11,7.08-.11"/><path id="_540" data-name="540" class="cls-2" d="M357.64,244.36c9.78-.24,20.13-2,28.19-7.86,6-4.54,7.16-12.61,7.24-19.67,0-8,.37-16.86-5-23.34-6.47-7.27-16.93-8.36-26.08-8.52h-4.35"/><path id="_541" data-name="541" class="cls-2" d="M326.49,233.56h12.2"/><path id="_543" data-name="543" class="cls-2" d="M336.57,208.49l-12.2-10.36"/><path id="_544" data-name="544" class="cls-2" d="M347.77,202.86v-17.6"/><path id="_545" data-name="545" class="cls-2" d="M376.58,233.56h12.15"/><path id="_546" data-name="546" class="cls-2" d="M347.77,197.18c-5.77,1.05-10.73,4.16-14.93,8.13"/><path id="_547" data-name="547" class="cls-2" d="M347.77,193.28A33.25,33.25,0,0,0,330.05,203"/><path id="_548" data-name="548" class="cls-2" d="M347.77,190.83a58.21,58.21,0,0,0-7.52,1.84"/><path id="_549" data-name="549" class="cls-3" d="M379.59,191.61a1.12,1.12,0,0,0-.78.33,1.25,1.25,0,0,0-.33.84,1.11,1.11,0,0,0,2.23,0,1.25,1.25,0,0,0-.33-.84A1.12,1.12,0,0,0,379.59,191.61Z"/><path id="_551" data-name="551" class="cls-2" d="M367.5,190.83a59.86,59.86,0,0,1,7.52,1.84"/><path id="_552" data-name="552" class="cls-2" d="M367.5,193.28A33.43,33.43,0,0,1,385.22,203"/><path id="_553" data-name="553" class="cls-2" d="M367.5,197.18a28.35,28.35,0,0,1,13.93,7.3l.5.39.5.45"/><path id="_554" data-name="554" class="cls-2" d="M367.5,202.86v-17.6"/><path id="_555" data-name="555" class="cls-2" d="M378.64,208.49l12.26-10.36"/><path id="_557" data-name="557" class="cls-3" d="M335.68,191.61a1.14,1.14,0,0,0-1.17,1.17,1.12,1.12,0,0,0,.33.78,1.25,1.25,0,0,0,.84.33,1.14,1.14,0,0,0,1.11-1.11,1.25,1.25,0,0,0-.33-.84A1.12,1.12,0,0,0,335.68,191.61Z"/><path id="_558" data-name="558" class="cls-2" d="M382.15,196.57a19.49,19.49,0,0,1,4.9,4.79"/><path id="_559" data-name="559" class="cls-2" d="M333.06,196.57a21.62,21.62,0,0,0-4.9,4.79"/><path id="_560" data-name="560" class="cls-3" d="M394.13,153.67c-2.17-14.93-14.51-27.61-29.32-30.33-14.5-3-30.43,3.65-38.27,16.24a37.38,37.38,0,0,0-5.45,14.09"/><path id="_561" data-name="561" class="cls-3" d="M357.64,167.43h12.51"/><path id="_562" data-name="562" class="cls-3" d="M370.4,167.43c7.09-.26,14.45-1.9,20.28-6.13,2.28-1.84,4.11-4.59,3.45-7.63"/><path id="_563" data-name="563" class="cls-3" d="M357.64,167.43H345.12"/><path id="_564" data-name="564" class="cls-3" d="M344.88,167.43c-7.29-.3-15-1.93-20.78-6.57a7.78,7.78,0,0,1-3-7.19"/><path id="_565" data-name="565" class="cls-3" d="M400,179.19a25.36,25.36,0,0,0-8.41-18.72"/><path id="_566" data-name="566" class="cls-2" d="M399.93,178.18c0-4.07-4.06-6.58-7.35-8.08-7-2.89-14.73-2.68-22.18-2.67"/><path id="_567" data-name="567" class="cls-2" d="M393.41,162.25c-6.72,4.54-15.15,5.07-23,5.18"/><path id="_568" data-name="568" class="cls-3" d="M376.12,243.92h21.24"/><path id="_569" data-name="569" class="cls-3" d="M401.88,240V187.26"/><path id="_570" data-name="570" class="cls-3" d="M401.88,187.26h11"/><path id="_571" data-name="571" class="cls-3" d="M401.88,240a30.82,30.82,0,0,0,27-30.14"/><path id="_572" data-name="572" class="cls-3" d="M429,203.7a21.37,21.37,0,0,0-6-15.1,21.67,21.67,0,0,0-7.86-5.18"/><path id="_573" data-name="573" class="cls-3" d="M428.9,209.88l.06-6.18"/><path id="_574" data-name="574" class="cls-3" d="M410.85,179.3a14.79,14.79,0,0,0-11.66-9l-.49-.08-.45-.07"/><path id="_575" data-name="575" class="cls-3" d="M410.85,179.3a7.81,7.81,0,0,0,4.23,4.12"/><path id="_576" data-name="576" class="cls-3" d="M401.88,235.67a26.59,26.59,0,0,0,16.4-7.39,26.36,26.36,0,0,0-2.53-40"/><path id="_577" data-name="577" class="cls-3" d="M415.75,188.27a5.27,5.27,0,0,0-2.84-1"/><path id="_578" data-name="578" class="cls-3" d="M401.88,229.16h5.79v-3.06h-5.79"/><path id="_579" data-name="579" class="cls-2" d="M315.29,199.63h8.53"/><path id="_580" data-name="580" class="cls-2" d="M391.4,199.63H400"/><path id="_581" data-name="581" class="cls-3" d="M406.67,243.92a10.6,10.6,0,0,0,10.53-10.31"/><path id="_582" data-name="582" class="cls-3" d="M404.38,235.34v-6.18"/><path id="_583" data-name="583" class="cls-3" d="M310.89,235.34V187.26"/><path id="_584" data-name="584" class="cls-3" d="M298.07,233.61a10.53,10.53,0,0,0,10.53,10.31"/><path id="_585" data-name="585" class="cls-3" d="M302.36,187.26l-1.5.28-1.34.72"/><path id="_586" data-name="586" class="cls-3" d="M299.52,188.27a26.35,26.35,0,0,0,13.24,47.33l.58.08"/><path id="_587" data-name="587" class="cls-3" d="M300.13,183.42a8.09,8.09,0,0,0,4.29-4.12"/><path id="_588" data-name="588" class="cls-3" d="M286.37,209.88l-.06-6.18"/><path id="_589" data-name="589" class="cls-3" d="M300.13,183.42a21.45,21.45,0,0,0-13.79,19.71l0,.57"/><path id="_590" data-name="590" class="cls-3" d="M286.37,209.88c.05,12.73,8.79,24.89,21,28.75a43.7,43.7,0,0,0,6,1.38"/><path id="_591" data-name="591" class="cls-3" d="M313.34,187.26h-11"/><path id="_592" data-name="592" class="cls-3" d="M313.34,240V187.26"/><path id="_593" data-name="593" class="cls-3" d="M315.29,220.74V179.19"/><path id="_594" data-name="594" class="cls-3" d="M317,170.16a15,15,0,0,0-12.54,9.14"/><path id="_595" data-name="595" class="cls-3" d="M339.15,243.92H308.6"/><path id="_596" data-name="596" class="cls-3" d="M323.7,160.47a25.36,25.36,0,0,0-8.41,18.72"/><path id="_597" data-name="597" class="cls-2" d="M315.34,178.18c.07-4.49,3.12-6.48,8.33-8.47s14.1-2.28,21.2-2.28"/><path id="_598" data-name="598" class="cls-2" d="M321.86,162.25c6.73,4.54,15.14,5.08,23,5.18"/><path id="_599" data-name="599" class="cls-3" d="M404.38,226.09V187.26"/><path id="_600" data-name="600" class="cls-3" d="M400,243.92h6.69"/><path id="_601" data-name="601" class="cls-3" d="M400,266.81h8.36"/><path id="_602" data-name="602" class="cls-3" d="M408.34,266.81v2.62"/><path id="_603" data-name="603" class="cls-3" d="M408.34,269.43h-11"/><path id="_604" data-name="604" class="cls-3" d="M400,220.74v46.07"/><path id="_605" data-name="605" class="cls-3" d="M397.36,269.43V229.6"/><path id="_606" data-name="606" class="cls-2" d="M346,185.37l.33-17.94"/><path id="_607" data-name="607" class="cls-2" d="M349.61,185.15V167.43"/><path id="_608" data-name="608" class="cls-2" d="M357.64,175.17H351v-4.29h6.63"/><path id="_609" data-name="609" class="cls-2" d="M356.63,170.88l-3.18-3.45"/><path id="_610" data-name="610" class="cls-3" d="M324.48,161.19c-.86-8.86,4.41-17,10.64-22.78,6.18-5.55,14-9.92,22.51-10.08"/><path id="_611" data-name="611" class="cls-3" d="M357.64,129.66c-10.28.29-19.31,6.91-25.3,14.87-3.76,5.1-6.52,11.18-6.57,17.6"/><path id="_612" data-name="612" class="cls-3" d="M357.64,129.66c10.29.28,19.28,6.93,25.3,14.87,3.74,5.1,6.48,11.19,6.58,17.6"/><path id="_613" data-name="613" class="cls-3" d="M390.73,161.19c.94-8.69-4.22-16.76-10.3-22.51s-14.18-10.18-22.79-10.36"/><path id="_614" data-name="614" class="cls-2" d="M361.81,167.43l-3.18,3.45"/><path id="_615" data-name="615" class="cls-2" d="M357.64,175.17h6.63v-4.29h-6.63"/><path id="_616" data-name="616" class="cls-2" d="M365.66,185.15V167.43"/><path id="_617" data-name="617" class="cls-2" d="M369.28,185.37l-.33-17.94"/><path id="_618" data-name="618" class="cls-3" d="M363.49,123.09,360.87,3.93"/><path id="_619" data-name="619" class="cls-3" d="M351.79,123.09,354.35,3.93"/><path id="_620" data-name="620" class="cls-3" d="M360.87,3.93a4,4,0,0,0-.74-2A3,3,0,0,0,357.84.76a3.13,3.13,0,0,0-2.55,1,3.06,3.06,0,0,0-.76,1.44q-.1.38-.18.76"/><path id="_621" data-name="621" class="cls-2" d="M353.74,32.12h7.75"/><path id="_622" data-name="622" class="cls-2" d="M360.42,122.7l-.78-90.58"/><path id="_623" data-name="623" class="cls-2" d="M354.85,122.7l.78-90.58"/><path id="_641" data-name="641" class="cls-3" d="M683.76,226v-4.57"/><path id="_642" data-name="642" class="cls-3" d="M427.45,218.68c3.3,0,5.29-4.38,3-6.8a8.59,8.59,0,0,0-1.58-1.11"/><path id="_643" data-name="643" class="cls-2" d="M425.5,223.53H683.76"/><path id="_644" data-name="644" class="cls-3" d="M428.34,218.57l255.42,2.9"/><path id="_645" data-name="645" class="cls-3" d="M422.55,228.21l188.28-1.56"/><path id="_646" data-name="646" class="cls-3" d="M698.2,223.59a4.79,4.79,0,0,0-4.56,3.12,4.93,4.93,0,1,0,5.4-3.06A5.72,5.72,0,0,0,698.2,223.59Z"/><path id="_647" data-name="647" class="cls-3" d="M703.15,223.59a5.5,5.5,0,0,0-1.2-3.24,4.92,4.92,0,0,0-5.81-1.23,4.73,4.73,0,0,0-2.74,3.75q-.06.36-.1.72"/><path id="_648" data-name="648" class="cls-3" d="M693.29,228.49v-4.9"/><path id="_649" data-name="649" class="cls-3" d="M703.15,228.49v-4.9"/><path id="_650" data-name="650" class="cls-3" d="M698.2,223.59l15.94-16.32"/><path id="_651" data-name="651" class="cls-3" d="M698.2,223.59l-16.27-15.93"/><path id="_652" data-name="652" class="cls-3" d="M693.29,228.6l-11,11.25"/><path id="_653" data-name="653" class="cls-3" d="M703.15,228.38l11.37,11.09"/><path id="_654" data-name="654" class="cls-3" d="M693.29,228.15h-6.74v-9.3h6.74"/><path id="_655" data-name="655" class="cls-3" d="M686.55,228.15,683.76,226"/><path id="_656" data-name="656" class="cls-3" d="M683.76,221.47l2.79-2.62"/><path id="_657" data-name="657" class="cls-3" d="M693.29,226v-7.19"/><path id="_659" data-name="659" class="cls-3" d="M357.64,271.33a22.9,22.9,0,0,0-20.41,12.56,22.64,22.64,0,0,0,1,22.27,22.86,22.86,0,1,0,19.45-34.83Z"/><path id="_660" data-name="660" class="cls-3" d="M393.8,281.86H376.86"/><path id="_661" data-name="661" class="cls-3" d="M338.36,281.86H321.53"/><path id="_662" data-name="662" class="cls-3" d="M553.71,263.14a15,15,0,1,0,3.18.33A15.37,15.37,0,0,0,553.71,263.14Z"/><path id="_663" data-name="663" class="cls-3" d="M553.71,275.51a6,6,0,1,0,4.86,2.46,5.89,5.89,0,0,0-4.86-2.46Z"/><path id="_664" data-name="664" class="cls-3" d="M544.41,266.37l-7-6.8"/><path id="_665" data-name="665" class="cls-3" d="M562.8,266.2l6.85-7"/><path id="_666" data-name="666" class="cls-3" d="M565.75,287.26l4.29,4.18"/><path id="_667" data-name="667" class="cls-3" d="M542,287.54l-4.18,4.23"/><path id="_668" data-name="668" class="cls-3" d="M560.07,264.53v-5.79h-12.7v5.79"/><path id="_669" data-name="669" class="cls-3" d="M556.17,227.09v31.64h-4.85V227.09"/><path id="_670" data-name="670" class="cls-3" d="M556.17,233.33H559v-2.79h-2.79"/><path id="_671" data-name="671" class="cls-3" d="M548.53,233.33l2.79,3.45"/><path id="_672" data-name="672" class="cls-3" d="M551.32,230.55h-2.79v2.79h2.79"/><path id="_673" data-name="673" class="cls-3" d="M556.17,230.55H559v2.79h-2.79"/><path id="_674" data-name="674" class="cls-3" d="M559,233.33l-2.79,3.45"/><path id="_675" data-name="675" class="cls-3" d="M618.57,233.95l-2.79,3.4"/><path id="_676" data-name="676" class="cls-3" d="M615.79,231.16h2.79v2.79h-2.79"/><path id="_677" data-name="677" class="cls-3" d="M610.74,231.16H608v2.79h2.79"/><path id="_678" data-name="678" class="cls-3" d="M608,233.95l2.79,3.4"/><path id="_679" data-name="679" class="cls-3" d="M615.79,233.95h2.79v-2.79h-2.79"/><path id="_680" data-name="680" class="cls-3" d="M615.67,226.59v25.57h-4.85V226.65"/><path id="_681" data-name="681" class="cls-3" d="M619.58,258v-5.79h-12.7V258"/><path id="_682" data-name="682" class="cls-3" d="M601.47,280.91l-4.18,4.23"/><path id="_683" data-name="683" class="cls-3" d="M625.26,280.63l4.29,4.18"/><path id="_684" data-name="684" class="cls-3" d="M622.36,259.57l6.8-7"/><path id="_685" data-name="685" class="cls-3" d="M603.92,259.74l-7-6.8"/><path id="_686" data-name="686" class="cls-3" d="M613.22,268.88a6,6,0,1,0,4.49,2,5.86,5.86,0,0,0-4.49-2Z"/><path id="_687" data-name="687" class="cls-3" d="M613.22,256.51a15,15,0,1,0,9.55,3.41,15.53,15.53,0,0,0-9.55-3.41Z"/><path id="_688" data-name="688" class="cls-3" d="M610.83,226.65c.55-1.09,1.89-3,3.29-2a5.44,5.44,0,0,1,1.56,1.95"/><path id="_689" data-name="689" class="cls-3" d="M615.67,226.59l68.09-.56"/><path id="_690" data-name="690" class="cls-3" d="M418.59,232.44,530.92,239"/><path id="_691" data-name="691" class="cls-3" d="M531.15,236.51l-96.67-8.41"/><path id="_692" data-name="692" class="cls-3" d="M530.92,239l.95-.33.39-.84-.28-.95-.84-.39"/><path id="_693" data-name="693" class="cls-3" d="M368.45,245.48v19.28H346.83V245.48"/><path id="_694" data-name="694" class="cls-3" d="M352.62,271.88v-7.13"/><path id="_695" data-name="695" class="cls-3" d="M362.65,264.75v7.13"/><path id="_696" data-name="696" class="cls-2" d="M346.83,261.41h21.62"/><path id="_699" data-name="699" class="cls-3" d="M184.12,236.51a2.18,2.18,0,0,0-.84.39,1.36,1.36,0,0,0-.33.95,1.28,1.28,0,0,0,.45.84,2.58,2.58,0,0,0,.89.33"/><path id="_700" data-name="700" class="cls-3" d="M184.12,236.51l96.67-8.41"/><path id="_701" data-name="701" class="cls-3" d="M296.62,232.44,184.29,239"/><path id="_702" data-name="702" class="cls-3" d="M99.6,226.59,31.51,226"/><path id="_703" data-name="703" class="cls-3" d="M104.44,226.65c-1.05-2.72-3.81-3-4.85-.06"/><path id="_704" data-name="704" class="cls-3" d="M102,256.51c-6.6,0-13,4.65-14.49,11.14a15,15,0,1,0,24-7.74A15.53,15.53,0,0,0,102,256.51Z"/><path id="_705" data-name="705" class="cls-3" d="M102,268.88a6,6,0,1,0,4.49,2,5.86,5.86,0,0,0-4.49-2Z"/><path id="_706" data-name="706" class="cls-3" d="M111.35,259.74l7-6.8"/><path id="_707" data-name="707" class="cls-3" d="M92.91,259.57l-6.85-7"/><path id="_708" data-name="708" class="cls-3" d="M90,280.63l-4.29,4.18"/><path id="_709" data-name="709" class="cls-3" d="M113.81,280.91l4.12,4.23"/><path id="_710" data-name="710" class="cls-3" d="M95.64,258v-5.79h12.7V258"/><path id="_711" data-name="711" class="cls-3" d="M99.6,226.59v25.57h4.85V226.65"/><path id="_712" data-name="712" class="cls-3" d="M99.43,233.95H96.64v-2.79h2.79"/><path id="_713" data-name="713" class="cls-3" d="M107.25,233.95l-2.79,3.4"/><path id="_714" data-name="714" class="cls-3" d="M104.47,231.16h2.79v2.79h-2.79"/><path id="_715" data-name="715" class="cls-3" d="M99.43,231.16H96.64v2.79h2.79"/><path id="_716" data-name="716" class="cls-3" d="M96.64,233.95l2.79,3.4"/><path id="_717" data-name="717" class="cls-3" d="M156.32,233.33l2.79,3.45"/><path id="_718" data-name="718" class="cls-3" d="M159.11,230.55h-2.79v2.79h2.79"/><path id="_719" data-name="719" class="cls-3" d="M164,230.55h2.79v2.79H164"/><path id="_720" data-name="720" class="cls-3" d="M166.74,233.33,164,236.79"/><path id="_721" data-name="721" class="cls-3" d="M159.11,233.33h-2.79v-2.79h2.79"/><path id="_722" data-name="722" class="cls-3" d="M159.11,227.09v31.64H164V227.09"/><path id="_723" data-name="723" class="cls-3" d="M155.21,264.53v-5.79h12.7v5.79"/><path id="_724" data-name="724" class="cls-3" d="M173.31,287.54l4.18,4.23"/><path id="_725" data-name="725" class="cls-3" d="M149.52,287.26l-4.29,4.18"/><path id="_726" data-name="726" class="cls-3" d="M152.42,266.2l-6.8-7"/><path id="_727" data-name="727" class="cls-3" d="M170.86,266.37l7-6.8"/><path id="_728" data-name="728" class="cls-3" d="M161.56,275.51A6,6,0,1,0,164.11,287a6,6,0,0,0,2.76-8.27,6.09,6.09,0,0,0-5.31-3.2Z"/><path id="_729" data-name="729" class="cls-3" d="M161.56,263.14a15.05,15.05,0,1,0,14.35,10.67,15,15,0,0,0-14.35-10.67Z"/><path id="_730" data-name="730" class="cls-3" d="M22,226v-7.19"/><path id="_731" data-name="731" class="cls-3" d="M31.51,221.47l-2.84-2.62"/><path id="_732" data-name="732" class="cls-3" d="M28.67,228.15,31.51,226"/><path id="_733" data-name="733" class="cls-3" d="M21.92,228.15h6.74v-9.3H22"/><path id="_734" data-name="734" class="cls-3" d="M12.12,228.38.75,239.46"/><path id="_735" data-name="735" class="cls-3" d="M22,228.6l11,11.25"/><path id="_736" data-name="736" class="cls-3" d="M17,223.59l16.33-15.93"/><path id="_737" data-name="737" class="cls-3" d="M17,223.59,1.08,207.26"/><path id="_738" data-name="738" class="cls-3" d="M12.12,228.49v-4.9"/><path id="_739" data-name="739" class="cls-3" d="M22,228.49v-4.9"/><path id="_740" data-name="740" class="cls-3" d="M22,223.59a5.5,5.5,0,0,0-1.2-3.24,5,5,0,0,0-6.08-1.12A4.86,4.86,0,0,0,12.2,223c0,.19-.06.38-.08.58"/><path id="_741" data-name="741" class="cls-3" d="M17,223.59a4.66,4.66,0,0,0-4.12,2.25,4.93,4.93,0,1,0,5.56-2.07,5.48,5.48,0,0,0-1.44-.18Z"/><path id="_742" data-name="742" class="cls-3" d="M292.72,228.21l-188.28-1.56"/><path id="_743" data-name="743" class="cls-3" d="M286.93,218.57l-255.42,2.9"/><path id="_744" data-name="744" class="cls-2" d="M289.77,223.53H31.51"/><path id="_745" data-name="745" class="cls-3" d="M31.51,226v-4.57"/><path id="_754" data-name="754" class="cls-3" d="M286.43,210.77c-4.08,1.6-3,7.69,1.34,7.91"/><path id="path5934" class="cls-4" d="M355.85,222.16a2.48,2.48,0,0,1,3.35.88,2.39,2.39,0,0,1-.9,3.29,2.48,2.48,0,0,1-3.35-.88,2.39,2.39,0,0,1,.88-3.28"/><path id="path5936" class="cls-5" d="M333.35,189a4.57,4.57,0,0,1,6.18,1.62,4.39,4.39,0,0,1-1.66,6.06,4.57,4.57,0,0,1-6.18-1.62,4.39,4.39,0,0,1,1.63-6"/><path id="path5938" class="cls-5" d="M377.35,189a4.57,4.57,0,0,1,6.18,1.62,4.39,4.39,0,0,1-1.66,6.06,4.57,4.57,0,0,1-6.18-1.62,4.39,4.39,0,0,1,1.63-6"/><path id="path5982" class="cls-6" d="M353.11,286.15a8.87,8.87,0,0,1,12.31,3.39,9.41,9.41,0,0,1-3.3,12.66,8.87,8.87,0,0,1-12.31-3.39,9.41,9.41,0,0,1,3.24-12.62"/></g></g></svg>