<svg xmlns="http://www.w3.org/2000/svg" viewBox="0 0 686.13 224.43"><defs><style>.cls-1,.cls-2,.cls-3,.cls-4,.cls-5,.cls-6{fill:none;stroke:#000;stroke-linecap:round;stroke-linejoin:round;}.cls-1{stroke-width:0.92px;}.cls-2{stroke-width:0.46px;}.cls-3{stroke-width:0.96px;}.cls-4{stroke-width:0.96px;}.cls-5{stroke-width:0.96px;}.cls-6{stroke-width:0.38px;}</style></defs><title>mig29</title><g id="Layer_2" data-name="Layer 2"><g id="Layer_1-2" data-name="Layer 1"><path id="polyline13861" class="cls-1" d="M343.06,187.18c10,.54,20.55-5.15,24.25-14.72a36,36,0,0,0,1.46-16,24.68,24.68,0,0,0-12-18.69c-4.16-2.53-9-3.08-13.74-3.22"/><path id="polyline13863" class="cls-2" d="M369,162.54c-.23-6.14-1.54-12.69-5.9-17.3a22,22,0,0,0-14.66-8.18c-1.79-.25-3.6-.34-5.4-.45"/><path id="polyline13865" class="cls-1" d="M343.06,187.18c-10,.54-20.55-5.15-24.26-14.72a36,36,0,0,1-1.46-16,24.68,24.68,0,0,1,12-18.69c4.16-2.53,9-3.08,13.74-3.22"/><path id="polyline13867" class="cls-2" d="M317.11,162.54c.23-6.14,1.54-12.69,5.9-17.3a22,22,0,0,1,14.66-8.18c1.79-.25,3.6-.34,5.4-.45"/><path id="path13869" class="cls-3" d="M368.17,112A25.34,25.34,0,1,0,318,112"/><path id="path13871" class="cls-3" d="M368.3,110.91a25.7,25.7,0,0,0-50.47,0"/><path id="path13873" class="cls-3" d="M368.17,112A25.48,25.48,0,0,0,318,112"/><path id="path13875" class="cls-3" d="M343.06,93.06a24.2,24.2,0,0,0-22.8,16.08"/><path id="polyline13877" class="cls-4" d="M324,119.33a1.84,1.84,0,0,1-2.17-.56,8.91,8.91,0,0,1-1.56-2.23,8.29,8.29,0,0,1-.47-3.22,31.31,31.31,0,0,1,.46-4.18"/><path id="path13879" class="cls-3" d="M343.06,113A31.72,31.72,0,0,0,324,119.33"/><path id="path13881" class="cls-2" d="M343.06,130.66A31.09,31.09,0,0,0,321.9,139"/><path id="path13883" class="cls-2" d="M343.06,118.86a31.1,31.1,0,0,0-5.31.46"/><path id="polyline13885" class="cls-2" d="M320.84,139.27V128.67"/><path id="polyline13887" class="cls-2" d="M343.06,130.66v-11.8"/><path id="polyline13889" class="cls-4" d="M319.28,125.79l3.27-1.08,4.36-3.09.12-.07"/><path id="polyline13891" class="cls-2" d="M322.12,138.77l-1.28.5"/><path id="polyline13893" class="cls-2" d="M320.84,128.67l.78-1.23"/><path id="polyline13895" class="cls-4" d="M321.12,128h-1.48"/><path id="polyline13897" class="cls-4" d="M319.64,128l-.36-2.19-2.78-6.89,0-.08"/><path id="path13899" class="cls-2" d="M364.51,127.44a31.09,31.09,0,0,0-21.44-8.58"/><path id="polyline13901" class="cls-4" d="M366.84,125.79a21.84,21.84,0,0,1-3.26-1.08c-1.59-.8-2.78-2.26-4.36-3.09a29.8,29.8,0,0,0-6.34-2.33,97.65,97.65,0,0,0-9.81-1.59"/><path id="polyline13903" class="cls-4" d="M317.73,109.11s-1.24,2.82-1.66,4.29a40.27,40.27,0,0,0-1.23,6.5c-.35,3.09.16,6.26-.37,9.32a4.7,4.7,0,0,1-.19.62"/><path id="polyline13905" class="cls-4" d="M319.71,174.57c-3.65-2.93-8.65-2.22-12.83-3.81-20.39-4.47-41.67-3.94-61.71-10.15a24.24,24.24,0,0,1-4.15-1.81"/><path id="polyline13907" class="cls-4" d="M318.47,173.4l-31.07-3.52"/><path id="polyline13909" class="cls-4" d="M287.39,169.89,280,213.54"/><path id="polyline13911" class="cls-4" d="M280.15,212.44l36.06,4.32"/><path id="polyline13913" class="cls-4" d="M316.21,216.76l6.2-38.32"/><path id="polyline13915" class="cls-2" d="M320.34,180.85,286.19,177"/><path id="polyline13917" class="cls-4" d="M318.14,186.68l-33-3.73"/><path id="ellipse13919" class="cls-5" d="M301.68,190.76a5,5,0,1,1-5-4.49A4.78,4.78,0,0,1,301.68,190.76Z"/><path id="path13921" class="cls-3" d="M294.71,184a7.07,7.07,0,0,0-5.09,6.3"/><path id="path13923" class="cls-3" d="M281,207.41a23.78,23.78,0,0,0,18.09,5.75,23.45,23.45,0,0,0,16.48-9.23"/><path id="polyline13925" class="cls-4" d="M316.21,216.76l-.63-10.34.92-15.1.46-4.77"/><path id="polyline13927" class="cls-4" d="M318.14,186.68l1.49-2.19.72-3.64"/><path id="polyline13929" class="cls-4" d="M320.34,180.85,322,178"/><path id="path13931" class="cls-3" d="M274.81,188a25.49,25.49,0,0,0,31.79,34.48"/><path id="path13933" class="cls-3" d="M260.84,171.77a36,36,0,0,0,13.86,36.92"/><path id="polyline13935" class="cls-1" d="M273,203.05c-2.31-4.07-3-8.81-3-13.42A41.15,41.15,0,0,0,268.23,179a11.25,11.25,0,0,0-8-7.41c-3.95-1-7.45-3.35-11.49-4.06A62.36,62.36,0,0,0,239,166c-1-.26-2.3-.86-2.18-2.16"/><path id="polyline13937" class="cls-2" d="M301.32,212.8l-3-15.11"/><path id="polyline13939" class="cls-2" d="M305.52,211.47l-5.89-14.23"/><path id="polyline13941" class="cls-2" d="M309.38,209.35l-8.56-12.8"/><path id="polyline13943" class="cls-2" d="M312.75,206.52l-10.88-10.88"/><path id="polyline13945" class="cls-2" d="M315.51,203.08l-12.79-8.55"/><path id="polyline13947" class="cls-2" d="M315.83,198.47l-12.5-5.18"/><path id="polyline13949" class="cls-2" d="M316.18,194.43l-12.49-2.49"/><path id="polyline13951" class="cls-2" d="M316.9,186.54l-13.3,2.65"/><path id="polyline13953" class="cls-2" d="M308.62,185.6l-5.48,2.27"/><path id="polyline13955" class="cls-2" d="M304.7,185.16l-2.27,1.51"/><path id="polyline13957" class="cls-4" d="M302.27,184.88l-.75.75"/><path id="polyline13959" class="cls-4" d="M300.49,184.68l-.08.11"/><path id="polyline13961" class="cls-4" d="M293.56,183.9l.2.48"/><path id="polyline13963" class="cls-2" d="M291.63,183.68l.93,1.39"/><path id="polyline13965" class="cls-2" d="M288.91,183.37l2.61,2.61"/><path id="polyline13967" class="cls-2" d="M285.1,183.36l5.57,3.72"/><path id="polyline13969" class="cls-2" d="M284.64,186.08l5.42,2.24"/><path id="polyline13971" class="cls-2" d="M284.21,188.58l5.48,1.09"/><path id="polyline13973" class="cls-2" d="M283.34,193.72l6.45-1.28"/><path id="polyline13975" class="cls-2" d="M282.81,196.83l7.43-3.08"/><path id="polyline13977" class="cls-2" d="M282.13,200.84l8.82-5.89"/><path id="polyline13979" class="cls-2" d="M281,206.87,291.87,196"/><path id="polyline13981" class="cls-2" d="M284.42,209.62l8.56-12.8"/><path id="polyline13983" class="cls-2" d="M288.32,211.66l5.89-14.23"/><path id="polyline13985" class="cls-2" d="M292.55,212.89l3-15.11"/><path id="path13987" class="cls-3" d="M343.06,170a3.22,3.22,0,0,0-3.35,2.75"/><path id="path13989" class="cls-3" d="M343.06,171.51a2.25,2.25,0,0,0-2.42,2"/><path id="polyline13991" class="cls-4" d="M343.06,180h-.17l-.17,0-.15.06-.13.09-.11.1-.08.12,0,.13,0,.14,0,.13,0,.13.08.12.11.11.13.09.15.06.17,0h.17"/><path id="polyline13993" class="cls-4" d="M343.06,173.12h-.17l-.17,0-.15.06-.13.09-.11.1-.08.12,0,.13,0,.14"/><path id="polyline13995" class="cls-4" d="M342.18,180.66v-6.84"/><path id="polyline13997" class="cls-4" d="M342.18,177,338,172.78"/><path id="polyline13999" class="cls-4" d="M338,172.78h1.71"/><path id="polyline14001" class="cls-4" d="M340.64,173.53l1.54.29"/><path id="polyline14003" class="cls-4" d="M339.71,172.78l.93.75"/><path id="polyline14005" class="cls-4" d="M280,213.54l35.39,4.24"/><path id="polyline14007" class="cls-2" d="M280.51,210.36a4.82,4.82,0,0,1-1.55-.59,7.7,7.7,0,0,1-1.91-3.18,14.23,14.23,0,0,1-.86-3.89,26.61,26.61,0,0,1,.12-4.94c.48-5.3,1.49-10.53,2.47-15.76.25-1.34.52-2.68.87-4a17.23,17.23,0,0,1,1.37-4.27,6,6,0,0,1,2.15-2.35c1.21-.66,2.73-.47,4.09-.71"/><path id="polyline14009" class="cls-2" d="M283.92,190.32h7.82"/><path id="polyline14011" class="cls-2" d="M301.65,190.32H316.6"/><path id="polyline14013" class="cls-2" d="M297.16,195.33v17.94"/><path id="polyline14015" class="cls-2" d="M296.32,186.28v-2.07"/><path id="polyline14017" class="cls-2" d="M291.72,191.16h-7.95"/><path id="polyline14019" class="cls-2" d="M296.32,213.27V195.34"/><path id="polyline14021" class="cls-2" d="M316.51,191.16H301.66"/><path id="polyline14023" class="cls-2" d="M297.16,184.3v2"/><path id="path14025" class="cls-3" d="M303.76,190.32a7.06,7.06,0,0,0-3.61-5.68"/><path id="path14027" class="cls-3" d="M297.16,197.86a7.08,7.08,0,0,0,6.61-6.69"/><path id="path14029" class="cls-3" d="M289.61,191.16a7.08,7.08,0,0,0,6.71,6.7"/><path id="polyline14031" class="cls-4" d="M296.69,191.33h.1l.1,0,.09,0,.08-.06.06-.08,0-.09,0-.1v-.2l0-.1,0-.09-.06-.08-.08-.06-.09,0-.1,0h-.2l-.1,0-.09,0-.08.06-.06.08,0,.09,0,.1v.2l0,.1,0,.09.06.08.08.06.09,0,.1,0h.1"/><path id="polyline14033" class="cls-2" d="M274.66,188.17a42.56,42.56,0,0,0,1.14-4.44,24.36,24.36,0,0,0,.33-6.73c-.08-.63-.54-1.18-.57-1.81a10.16,10.16,0,0,1,.57-3c.23-.92.65-1.78.82-2.71a54.1,54.1,0,0,0,.47-6.32"/><path id="path14035" class="cls-2" d="M269,195.37a1.87,1.87,0,0,0,0,3.73"/><path id="polyline14037" class="cls-2" d="M271.25,199.1H269"/><path id="polyline14039" class="cls-2" d="M269,195.37v-2h1.14"/><path id="polyline14041" class="cls-2" d="M273.06,203.48l1.24-1.16,1.8-.79"/><path id="polyline14043" class="cls-4" d="M306.6,222.47l4-2.49,3.94-1.77,3.39-4.12,3.62-6.9,2.12-9.13.49-8-.24-3.61.2-6.24"/><path id="polyline14045" class="cls-4" d="M324,186.47H335.4"/><path id="polyline14047" class="cls-4" d="M319.07,212.29l1.69-2.14.94-4.84"/><path id="polyline14049" class="cls-2" d="M321.7,205.31V186.47"/><path id="polyline14051" class="cls-2" d="M316.76,213.35c1.57-1.49,1.87-3.74,2.29-5.76.92-4.41.83-9.06,2.63-13.25.38-.84.35-2.08,1.25-2.57a1.34,1.34,0,0,1,1.29.48"/><path id="polyline14053" class="cls-2" d="M292.27,168.13c-1.55-.73-3.31-1.83-3.91-3.57a9.65,9.65,0,0,1,.75-4.74,23.81,23.81,0,0,1,6-5.8c3.54-2.34,7.49-3.64,11.26-5.85,2.23-1.11,3.76-3.47,4.71-5.42a26.44,26.44,0,0,0,2.64-5.74"/><path id="polyline14055" class="cls-2" d="M308.35,171.28c-1.14-.76-2.46-1.27-3-2.56-.66-.79-.19-2.33.34-3.15.52-1.21,1.69-1.93,2.31-3.08a38,38,0,0,0,3-6c.49-1.42.83-2.88,1.17-4.34"/><path id="polyline14057" class="cls-2" d="M319.64,128l-2.24,2.41"/><path id="polyline14059" class="cls-2" d="M312.75,172.06a8.18,8.18,0,0,1-2.39-2,3.58,3.58,0,0,1-.68-2,6.4,6.4,0,0,1,1.33-3.13,18.56,18.56,0,0,1,1.61-1.81,7.13,7.13,0,0,0,1.06-2.74"/><path id="polyline14061" class="cls-2" d="M313.59,160.49l.23-18.81"/><path id="polyline14063" class="cls-4" d="M296.43,221.81l.24-4.93"/><path id="polyline14065" class="cls-2" d="M286.6,167.53c.24-.25.92-.38.72-.76s-1.47-1.1-1.79-1.67a2.89,2.89,0,0,1-.59-1.82,6.24,6.24,0,0,1,.8-1.56c.23-.38.8-.08,1.05-.63a6,6,0,0,0,.41-2.69c0-1.31,0-3.42,0-5.13"/><path id="polyline14067" class="cls-2" d="M277.36,158.05l-.14-9.13"/><path id="polyline14069" class="cls-2" d="M284.29,167.32a34.24,34.24,0,0,1-4.17-2,5.67,5.67,0,0,1-1.8-1.55,3.11,3.11,0,0,1-.49-1.87,7.32,7.32,0,0,1,1.69-3.58,11.48,11.48,0,0,1,2.62-2.24,29.72,29.72,0,0,1,3.22-1.85c.61-.33,1.86-.91,1.86-.91"/><path id="polyline14071" class="cls-2" d="M277.41,163.2l-.32-.84-.84-.27c-.1-.16-.22-.31-.3-.48l.13-1.84.79-.55.49-1.17"/><path id="polyline14073" class="cls-2" d="M278.54,148.59l-.73-5.13"/><path id="ellipse14075" class="cls-4" d="M306.09,135.71a1.27,1.27,0,1,1-1.27,1.27A1.27,1.27,0,0,1,306.09,135.71Z"/><path id="polyline14077" class="cls-2" d="M259.05,156.36,251.33,153"/><path id="polyline14079" class="cls-4" d="M310.69,136.48l-3.33.45"/><path id="polyline14081" class="cls-2" d="M241.28,152.48c5-4.2,11.58-5.57,17.69-7.37,6.1-1.63,12.29-2.9,18.45-4.31"/><path id="polyline14083" class="cls-2" d="M249.85,155.63a18.91,18.91,0,0,1,2.5-3.76,18.19,18.19,0,0,1,5.36-3.13,56,56,0,0,1,7.78-2.33c3.67-1,7.37-1.91,11.09-2.68,7.41-1.55,14.89-2.69,22.36-3.94,3.35-.56,10.06-1.58,10.06-1.58"/><path id="path14085" class="cls-2" d="M259.05,156.36c-1.93,1.31-1.66,3.16.61,4.17"/><path id="polyline14087" class="cls-2" d="M255.54,157.89h2.29"/><path id="polyline14089" class="cls-2" d="M258.65,160.52h1"/><path id="path14091" class="cls-2" d="M257.11,155.52c-1.25.72-1.81,1.71-1.51,2.69s1.42,1.83,3,2.32"/><path id="polyline14093" class="cls-2" d="M278.17,146l7.77-1.54,8.46-2,14.37-4"/><path id="polyline14095" class="cls-4" d="M304.84,137.2c-10.27,1.29-20.61,2.24-30.74,4.46-10,1.8-20,3.78-29.57,7.23a18,18,0,0,0-5.93,2.61"/><path id="polyline14097" class="cls-2" d="M278,144.73l7-1.28,8.07-1.49,6-1.14,4.52-1.09,5.14-1.23"/><path id="polyline14099" class="cls-2" d="M278.34,147.18l5.94-1.33L292,144l6.18-1.66,6.41-1.83,3.88-2"/><path id="polyline14101" class="cls-4" d="M276,181.42s-.52-3.16-1.57-4.24c-.77-.79-2.18-.58-3.08-1.23a7.27,7.27,0,0,1-1.54-1.85,15.08,15.08,0,0,0-1.23-2.16,10.43,10.43,0,0,0-3.08-1.85,25.14,25.14,0,0,0-5-1.85c-1.78-.42-3.66-.23-5.44-.62a19.89,19.89,0,0,1-5.64-1.85,11.82,11.82,0,0,1-2.36-2.05c-1.11-1.1-3.09-3.52-3.09-3.52"/><path id="polyline14103" class="cls-4" d="M261.4,172.49s-4.27-1.26-6.4-1.92c-1.75-.54-3.42-1.62-5.25-1.64a5.62,5.62,0,0,0-2,.56c-.88.33-1.65.93-2.55,1.22a17.71,17.71,0,0,1-5,.89,5.16,5.16,0,0,1-2.78-.37,2.59,2.59,0,0,1-.88-1.24,5.55,5.55,0,0,1-.33-1.55,23.39,23.39,0,0,1-.1-2.46c0-.71,0-2.13,0-2.13"/><path id="polyline14105" class="cls-4" d="M236.13,163.84h11"/><path id="polyline14107" class="cls-4" d="M240,161.59v-9.06"/><path id="polyline14109" class="cls-4" d="M240,152.54l-16.24.8"/><path id="polyline14111" class="cls-4" d="M245.36,148.34,227,.48"/><path id="polyline14113" class="cls-4" d="M227,.48l.68,19.76"/><path id="polyline14115" class="cls-4" d="M227.65,20.24,235.2,150"/><path id="polyline14117" class="cls-4" d="M234.19,132.59h-2.56V132h2.53"/><path id="polyline14119" class="cls-4" d="M242.19,159.51H240"/><path id="polyline14121" class="cls-4" d="M240,159.75l-27.65,1.77-23.13,1.42-33.71,1.78L127,166.49,91.8,167.57l-44.24,1.1"/><path id="polyline14123" class="cls-4" d="M240,161.59l-14.35.59-24.16.05"/><path id="polyline14125" class="cls-4" d="M230.48,168.34l.1-6.4"/><path id="polyline14127" class="cls-4" d="M230.58,168.23l-94.15,4.27"/><path id="polyline14129" class="cls-4" d="M211.19,162.32,129,169.76"/><path id="polyline14131" class="cls-4" d="M113.42,172.22l26.35.12"/><path id="polyline14133" class="cls-4" d="M144.77,168.16l-31.35,4.06"/><path id="polyline14135" class="cls-4" d="M235.59,149.92l-19.31,1.25-34.83,1.94-42.27,2.31-25.47,1.23-36.4,3.15L23.18,164,2.8,168.27"/><path id="polyline14137" class="cls-4" d="M1.79,168.27h1v2.67h-1"/><path id="path14139" class="cls-3" d="M1.79,168.27a1.34,1.34,0,0,0,0,2.67"/><path id="polyline14141" class="cls-4" d="M2.8,170.95l.6.69L5,171.9l6.09.13L20,171.7l12.37-.51,15.17-.95"/><path id="polyline14143" class="cls-4" d="M47.56,170.24V164"/><path id="polyline14145" class="cls-4" d="M47.56,167.14,2.8,168.27"/><path id="polyline14147" class="cls-4" d="M47.56,164l176.18-10.7"/><path id="polyline14149" class="cls-4" d="M85.73,167.69v2.57"/><path id="polyline14151" class="cls-4" d="M85.73,169.55H84.06v-1.83"/><path id="path14153" class="cls-3" d="M85.73,170.25a1.53,1.53,0,1,0,3.06,0"/><path id="polyline14155" class="cls-4" d="M88.79,170.25l.47-2.63"/><path id="polyline14157" class="cls-4" d="M127.79,166.45v1.3H125.3v-1.17"/><path id="path14159" class="cls-3" d="M148.81,165.14a1.74,1.74,0,1,0,3.47-.22"/><path id="polyline14161" class="cls-4" d="M126.6,172.51l0-2.44"/><path id="polyline14163" class="cls-4" d="M126,166.54a14.13,14.13,0,0,1,.34-2,7,7,0,0,1,1-2.05,11.59,11.59,0,0,1,2.48-2.31,22.08,22.08,0,0,1,2.09-1.26"/><path id="polyline14165" class="cls-4" d="M187.1,163.05a7.58,7.58,0,0,1,.55-1.72,9.33,9.33,0,0,1,2.17-2.28,23.22,23.22,0,0,1,2.61-1.71c1.29-.81,3.92-2.35,3.92-2.35"/><path id="polyline14167" class="cls-2" d="M239,133.62,227,.48"/><path id="polyline14169" class="cls-4" d="M236.15,102.39l-1.26,6.38-.58,6.8"/><path id="polyline14171" class="cls-2" d="M233.52,121.14a7.2,7.2,0,0,0,.78,2.17,2.52,2.52,0,0,0,.88.61c.24.12.5.37.75.27.44-.16.46-.81.68-1.23a10,10,0,0,1,.61-1.23,5.12,5.12,0,0,1,.61-.61"/><path id="polyline14173" class="cls-4" d="M236.15,102.39l2.38,6.05,1.79,6.58"/><path id="polyline14175" class="cls-2" d="M242.09,120.37a7.18,7.18,0,0,1-.38,2.27,2.52,2.52,0,0,1-.76.76c-.21.16-.43.45-.69.4-.46-.08-.6-.72-.89-1.08a10.05,10.05,0,0,0-.82-1.1,5.13,5.13,0,0,0-.71-.49"/><path id="path14177" class="cls-3" d="M237.64,86.29a2,2,0,1,0-.5-4"/><path id="path14179" class="cls-3" d="M232.23,42.74a3.08,3.08,0,0,0-.68-5.5"/><path id="polyline14181" class="cls-4" d="M225.11,40.27l2.38-.08"/><path id="path14183" class="cls-3" d="M237.89,88.25a2.8,2.8,0,0,0,1.77-.39c.35-.28.31-.64-.12-.93a3.33,3.33,0,0,0-1.87-.43"/><path id="polyline14185" class="cls-4" d="M235.53,151.16l.59-12.3"/><path id="polyline14187" class="cls-4" d="M236.12,138.85l4.5.22"/><path id="polyline14189" class="cls-4" d="M240.62,139.07,240,150.57"/><path id="polyline14191" class="cls-4" d="M236.07,140.08l4.5.22"/><path id="polyline14193" class="cls-4" d="M238.61,151.5l-1.6.26-1-.2-.46-.4"/><path id="polyline14195" class="cls-4" d="M236.32,169.18a5.83,5.83,0,0,1-2-.54,5.73,5.73,0,0,1-2-2.88,12.91,12.91,0,0,1-.12-3.91"/><path id="polyline14197" class="cls-4" d="M233.63,40l1.74-.06"/><path id="path14199" class="cls-3" d="M228.67,37.73a3.08,3.08,0,0,0,.3,5.06"/><path id="polyline14201" class="cls-4" d="M227.7,21.09l1.81-.16"/><path id="polyline14203" class="cls-4" d="M227.74,21.73l1.85-.17"/><path id="path14221" class="cls-3" d="M338.36,123.18a25,25,0,0,0-11,2.09"/><path id="polyline14223" class="cls-4" d="M338.36,123.18a11.84,11.84,0,0,0-.66-4,6.47,6.47,0,0,0-3-2.76,6.16,6.16,0,0,0-3.63-.35,5,5,0,0,0-3,1.57c-.92,1.16-1,2.82-1.1,4.3a18,18,0,0,0,.33,3.31"/><path id="polyline14225" class="cls-2" d="M330.87,130.68a17.64,17.64,0,0,0-2.75-3.09c-.39-.28-1-.18-1.32-.55a5.37,5.37,0,0,1-.44-2.65"/><path id="polyline14227" class="cls-4" d="M337.21,118.37l5.86-.66"/><path id="path14229" class="cls-2" d="M327,123.3a31.09,31.09,0,0,0-5.43,4.13"/><path id="path14231" class="cls-3" d="M310.9,132c1.21,1,2.12,1,2.22,0s-.64-2.74-1.8-4.25"/><path id="path14233" class="cls-3" d="M311.31,127.77a3.23,3.23,0,0,0-.41,4.27"/><path id="ellipse14235" class="cls-4" d="M351.48,121.45a1.42,1.42,0,1,1-1.42,1.42A1.42,1.42,0,0,1,351.48,121.45Z"/><path id="polyline14237" class="cls-4" d="M343.06,80.55h.48V83.3"/><path id="polyline14239" class="cls-4" d="M343.06,80.55h-.48V83.3"/><path id="path14249" class="cls-2" d="M364.22,139a31.09,31.09,0,0,0-21.16-8.31"/><path id="polyline14251" class="cls-2" d="M365.28,139.27V128.67"/><path id="polyline14255" class="cls-2" d="M364,138.77l1.28.5"/><path id="polyline14257" class="cls-2" d="M365.28,128.67l-.78-1.23"/><path id="polyline14259" class="cls-2" d="M365,128h1.48"/><path id="polyline14261" class="cls-4" d="M366.48,128l.36-2.19,2.78-6.89,0-.08"/><path id="polyline14265" class="cls-4" d="M366.42,174.57l1.29-1.2,5.4-1.28,11.08-2.31L394.49,168l15-1.45,18-2.7,11.27-2.41,4.34-1.64,2.22-.36"/><path id="polyline14267" class="cls-4" d="M367.66,173.4l31.07-3.52"/><path id="polyline14269" class="cls-2" d="M365.78,180.85,399.94,177"/><path id="polyline14271" class="cls-4" d="M368,186.68l33-3.73"/><path id="polyline14273" class="cls-4" d="M398.73,169.89l7.43,43.65"/><path id="polyline14275" class="cls-4" d="M406,212.44l-36.06,4.32"/><path id="polyline14277" class="cls-4" d="M369.92,216.76l-6.2-38.32"/><path id="ellipse14279" class="cls-5" d="M384.45,190.76a5,5,0,1,1,4.94,4.58A4.78,4.78,0,0,1,384.45,190.76Z"/><path id="path14281" class="cls-3" d="M391.42,184a7.07,7.07,0,0,1,5.09,6.3"/><path id="path14283" class="cls-3" d="M396.51,191.16a7.08,7.08,0,0,1-6.71,6.7"/><path id="path14285" class="cls-3" d="M389,197.86a7.08,7.08,0,0,1-6.61-6.69"/><path id="path14287" class="cls-3" d="M382.36,190.32a7.06,7.06,0,0,1,3.61-5.68"/><path id="path14289" class="cls-3" d="M405.12,207.41A23.78,23.78,0,0,1,387,213.15a23.45,23.45,0,0,1-16.48-9.23"/><path id="polyline14291" class="cls-4" d="M369.92,216.76l.63-10.34-.91-15.1-.46-4.77"/><path id="polyline14293" class="cls-4" d="M368,186.68l-1.49-2.19-.72-3.64"/><path id="polyline14295" class="cls-4" d="M365.78,180.85,364.09,178"/><path id="path14297" class="cls-3" d="M379.53,222.47A25.49,25.49,0,0,0,411.32,188"/><path id="path14299" class="cls-3" d="M411.42,208.69A35.8,35.8,0,0,0,425.48,172"/><path id="polyline14301" class="cls-4" d="M413.15,203.05a36.5,36.5,0,0,0,1.52-3.38,27,27,0,0,0,1.09-4.58c.5-3.21.18-6.51.73-9.71.49-2.86.88-5.86,2.28-8.4a11.41,11.41,0,0,1,3.52-3.85c1.93-1.32,4.38-1.67,6.56-2.54,1.78-.72,3.5-1.6,5.32-2.21a34.63,34.63,0,0,1,3.69-1c2.17-.48,4.36-.84,6.56-1.15a16.25,16.25,0,0,0,3.11-.33,3.1,3.1,0,0,0,1.56-1,2.75,2.75,0,0,0,.25-1.07"/><path id="polyline14303" class="cls-2" d="M384.81,212.8l3-15.11"/><path id="polyline14305" class="cls-2" d="M380.61,211.47l5.89-14.23"/><path id="polyline14307" class="cls-2" d="M376.75,209.35l8.55-12.8"/><path id="polyline14309" class="cls-2" d="M373.37,206.52l10.88-10.88"/><path id="polyline14311" class="cls-2" d="M370.62,203.08l12.79-8.55"/><path id="polyline14313" class="cls-2" d="M370.29,198.47l12.5-5.18"/><path id="polyline14315" class="cls-2" d="M369.94,194.43l12.49-2.49"/><path id="polyline14317" class="cls-2" d="M369.23,186.54l13.3,2.65"/><path id="polyline14319" class="cls-2" d="M377.51,185.6l5.48,2.27"/><path id="polyline14321" class="cls-2" d="M381.42,185.16l2.27,1.51"/><path id="polyline14323" class="cls-4" d="M383.86,184.88l.75.75"/><path id="polyline14325" class="cls-4" d="M385.63,184.68l.08.11"/><path id="polyline14327" class="cls-4" d="M392.56,183.9l-.2.48"/><path id="polyline14329" class="cls-2" d="M394.49,183.68l-.93,1.39"/><path id="polyline14331" class="cls-2" d="M397.22,183.37,394.61,186"/><path id="polyline14333" class="cls-2" d="M401,183.36l-5.57,3.72"/><path id="polyline14335" class="cls-2" d="M401.49,186.08l-5.42,2.24"/><path id="polyline14337" class="cls-2" d="M401.91,188.58l-5.48,1.09"/><path id="polyline14339" class="cls-2" d="M402.79,193.72l-6.45-1.28"/><path id="polyline14341" class="cls-2" d="M403.32,196.83l-7.44-3.08"/><path id="polyline14343" class="cls-2" d="M404,200.84l-8.82-5.89"/><path id="polyline14345" class="cls-2" d="M405.14,206.87,394.26,196"/><path id="polyline14347" class="cls-2" d="M401.71,209.62l-8.56-12.8"/><path id="polyline14349" class="cls-2" d="M397.8,211.66l-5.89-14.23"/><path id="polyline14351" class="cls-2" d="M393.57,212.89l-3-15.11"/><path id="path14353" class="cls-3" d="M343.06,170a3.22,3.22,0,0,1,3.35,2.75"/><path id="path14355" class="cls-3" d="M343.06,171.51a2.25,2.25,0,0,1,2.42,2"/><path id="polyline14357" class="cls-4" d="M343.06,180h.17l.17,0,.15.06.13.09.11.1.08.12,0,.13,0,.14,0,.13,0,.13-.08.12-.11.11-.13.09-.15.06-.17,0h-.17"/><path id="polyline14359" class="cls-4" d="M343.06,173.12h.17l.17,0,.15.06.13.09.11.1.08.12,0,.13,0,.14"/><path id="polyline14361" class="cls-4" d="M343.95,180.66v-6.84"/><path id="polyline14363" class="cls-4" d="M343.95,177l4.18-4.23"/><path id="polyline14365" class="cls-4" d="M348.12,172.78h-1.71"/><path id="polyline14367" class="cls-4" d="M345.48,173.53l-1.54.29"/><path id="polyline14369" class="cls-4" d="M346.41,172.78l-.93.75"/><path id="polyline14371" class="cls-4" d="M406.16,213.54l-35.39,4.24"/><path id="polyline14373" class="cls-4" d="M405.62,209.79a3.12,3.12,0,0,0,1.32-.22c1.1-.74,1.58-2.15,2.09-3.38a17.49,17.49,0,0,0,.89-3.75.27.27,0,0,0,0,0,31,31,0,0,0,.11-3.84c-.11-2-.51-3.89-.81-5.82-.52-3.41-1.12-6.8-1.68-10.19-.19-1.14-.36-2.28-.58-3.41a26.53,26.53,0,0,0-.77-3.69,9.47,9.47,0,0,0-1.1-2.26,7.56,7.56,0,0,0-2.15-2.35,6.54,6.54,0,0,0-4.49-1"/><path id="polyline14375" class="cls-2" d="M402.21,190.32h-7.82"/><path id="polyline14377" class="cls-2" d="M394.4,191.16h7.95"/><path id="polyline14379" class="cls-2" d="M384.48,190.32H369.53"/><path id="polyline14381" class="cls-2" d="M369.62,191.16h14.85"/><path id="polyline14383" class="cls-2" d="M389,195.33v17.94"/><path id="polyline14385" class="cls-2" d="M389.8,213.27V195.34"/><path id="polyline14387" class="cls-2" d="M389.8,186.28v-2.07"/><path id="polyline14389" class="cls-2" d="M389,184.3v2"/><path id="polyline14391" class="cls-4" d="M389.43,191.33h.1l.1,0,.09,0,.08-.06.06-.08,0-.09,0-.1v-.2l0-.1,0-.09-.06-.08-.08-.06-.09,0-.1,0h-.2l-.1,0-.09,0-.08.06-.06.08,0,.09,0,.1v.2l0,.1,0,.09.06.08.08.06.09,0,.1,0h.1"/><path id="polyline14393" class="cls-6" d="M411.4,188.2a36.56,36.56,0,0,1-1.38-6.72,24.5,24.5,0,0,1-.06-4.3c.34-1.15.92-2.33.42-3.54-.48-1.91-1.32-3.75-1.43-5.74-.13-1.56-.2-3.12-.24-4.69"/><path id="path14395" class="cls-2" d="M417.08,199.1a1.87,1.87,0,0,0,0-3.73"/><path id="polyline14397" class="cls-2" d="M414.88,199.1h2.21"/><path id="polyline14399" class="cls-2" d="M417.08,195.37v-2h-1.14"/><path id="polyline14401" class="cls-2" d="M413.07,203.48l-1.24-1.16-1.8-.79"/><path id="polyline14403" class="cls-4" d="M379.53,222.47a34.85,34.85,0,0,1-3.83-1.48,19.57,19.57,0,0,1-4.14-2.78,21.63,21.63,0,0,1-3.39-4.12,34,34,0,0,1-3.62-6.9,44.59,44.59,0,0,1-2.12-9.13,54.39,54.39,0,0,1-.49-8c0-1.2.22-2.4.24-3.61,0-2.08-.2-6.24-.2-6.24"/><path id="polyline14405" class="cls-4" d="M362.16,186.47H350.73"/><path id="polyline14407" class="cls-2" d="M367.05,212.29a23.89,23.89,0,0,1-1.83-3.28,24.07,24.07,0,0,1-.8-3.7"/><path id="polyline14409" class="cls-2" d="M364.42,205.31l.14-21.83"/><path id="polyline14411" class="cls-2" d="M369.36,213.35a5.87,5.87,0,0,1-1.82-3.34c-.94-3.58-1.15-7.3-1.7-10.95-.25-1.65-.75-3.24-1.1-4.86a3.6,3.6,0,0,0-1.61-2.43,1.17,1.17,0,0,0-1.23.48"/><path id="polyline14413" class="cls-2" d="M393.86,168.13a15.4,15.4,0,0,0,2.51-1.37,4.28,4.28,0,0,0,1.41-1.61,6,6,0,0,0,.1-2.41,5.61,5.61,0,0,0-.2-1.81,8.21,8.21,0,0,0-1.51-2.11,24.76,24.76,0,0,0-2.91-3.11,31.9,31.9,0,0,0-4.61-3.19c-2-1.19-4.23-2-6.24-3.14a33.06,33.06,0,0,1-3.94-2.67,14.41,14.41,0,0,1-2.29-2.15,22.4,22.4,0,0,1-2.51-4.22c-.52-1.07-1.31-3.32-1.31-3.32"/><path id="polyline14415" class="cls-2" d="M366.48,128a24.76,24.76,0,0,1,2.5,2.71,15.89,15.89,0,0,1,1.55,3.1c.51,1.27,1.24,3.92,1.24,3.92"/><path id="polyline14417" class="cls-2" d="M373.37,172.06a14.91,14.91,0,0,0,1.48-1.18c.24-.25.41-.56.64-.82l.08-.08a3.17,3.17,0,0,0,.49-.57,2.79,2.79,0,0,0,.4-1.46,7,7,0,0,0-1.34-3c-.48-.77-1.3-1.31-1.75-2.1a13.07,13.07,0,0,1-.82-2.34"/><path id="polyline14419" class="cls-4" d="M389.69,221.81l-.23-4.93"/><path id="polyline14421" class="cls-2" d="M399.52,167.53s-.73-.41-.72-.76.42-.35.62-.54c.4-.37.92-.65,1.17-1.13a2.59,2.59,0,0,0,.17-1.22,3.91,3.91,0,0,0-.39-2.16c-.23-.34-.81-.3-1.05-.63a3.91,3.91,0,0,1-.41-1.89,16.18,16.18,0,0,1,0-1.74c0-1.4,0-4.19,0-4.19"/><path id="polyline14423" class="cls-2" d="M408.77,158.05l.15-9.13"/><path id="polyline14425" class="cls-2" d="M401.84,167.32a34.24,34.24,0,0,0,4.17-2,7.7,7.7,0,0,0,1.8-1.55,3,3,0,0,0,.89-1.67c0-1.44-1.18-2.66-2.09-3.78A12.81,12.81,0,0,0,404,156a29.75,29.75,0,0,0-3.22-1.85c-.61-.33-1.86-.91-1.86-.91"/><path id="polyline14427" class="cls-2" d="M408.71,163.2l.32-.84.84-.27.3-.46-.14-1.85-.79-.55-.49-1.17"/><path id="polyline14429" class="cls-2" d="M407.59,148.59l.73-5.13"/><path id="polyline14431" class="cls-2" d="M427.07,156.36l7.72-3.32"/><path id="polyline14433" class="cls-4" d="M381.29,137.2s13.21,1.36,20.47,2.49,17.65,3.22,23.07,4.41,6,1.36,9.5,2.38,9.31,2.74,11.43,3.8,1.77,1.22,1.77,1.22"/><path id="polyline14435" class="cls-4" d="M445.75,152.78s-2.07-1.38-3.14-2a36.88,36.88,0,0,0-3.91-2.07,62.88,62.88,0,0,0-6.43-2.18c-2.2-.68-4.42-1.27-6.65-1.85-3.47-.89-7-1.67-10.46-2.46-2.15-.49-6.45-1.43-6.45-1.43"/><path id="polyline14437" class="cls-2" d="M436.27,155.63a18.9,18.9,0,0,0-2.5-3.76,18.19,18.19,0,0,0-5.37-3.13,56.07,56.07,0,0,0-7.78-2.33c-3.67-1-7.37-1.91-11.09-2.68-7.41-1.55-14.89-2.69-22.36-3.94-3.35-.56-10.06-1.58-10.06-1.58"/><path id="path14439" class="cls-2" d="M429,155.52c1.25.72,1.81,1.71,1.51,2.69s-1.42,1.83-3,2.32"/><path id="path14441" class="cls-2" d="M427.07,156.36c1.93,1.31,1.66,3.16-.61,4.17"/><path id="polyline14443" class="cls-2" d="M430.59,157.89H428.3"/><path id="polyline14445" class="cls-2" d="M427.48,160.52h-1"/><path id="polyline14447" class="cls-2" d="M408,146l-7.77-1.54-8.46-2-14.38-4"/><path id="polyline14449" class="cls-2" d="M408.14,144.73l-7-1.28L393,142l-6-1.14-4.52-1.09-5.14-1.23"/><path id="polyline14451" class="cls-2" d="M407.79,147.18l-5.93-1.33L394.13,144,388,142.36l-6.41-1.83-3.88-2"/><path id="polyline14455" class="cls-4" d="M424.72,171.79s4.25-1.3,6.4-1.81c1.74-.42,3.47-1.11,5.25-1a6.53,6.53,0,0,1,2,.56c.88.33,1.65.93,2.55,1.22a17.72,17.72,0,0,0,5,.89,5.17,5.17,0,0,0,2.78-.37,2.59,2.59,0,0,0,.88-1.24,5.55,5.55,0,0,0,.33-1.55A23.39,23.39,0,0,0,450,166c0-.71,0-2.13,0-2.13"/><path id="polyline14457" class="cls-4" d="M450,163.84H439"/><path id="polyline14459" class="cls-4" d="M446.15,161.59v-9.06"/><path id="polyline14461" class="cls-4" d="M446.15,152.54l16.24.8"/><path id="polyline14463" class="cls-4" d="M458.47,20.24,450.93,150"/><path id="polyline14465" class="cls-4" d="M450.59,151.16l-.59-12.3"/><path id="polyline14467" class="cls-4" d="M450,138.85l-4.5.22"/><path id="polyline14469" class="cls-4" d="M445.5,139.07l.59,11.51"/><path id="polyline14471" class="cls-4" d="M451.94,132.59h2.56V132H452"/><path id="polyline14473" class="cls-4" d="M443.93,159.51h2.21"/><path id="polyline14475" class="cls-4" d="M446.15,159.75l27.64,1.77,23.13,1.42,33.71,1.78,28.45,1.77,35.25,1.08,44.24,1.1"/><path id="polyline14477" class="cls-4" d="M446.15,161.59l14.35.59,24.15.05"/><path id="polyline14479" class="cls-4" d="M455.83,168.68l-.28-6.74"/><path id="polyline14481" class="cls-4" d="M455.55,168.23l94.15,4.27"/><path id="polyline14483" class="cls-4" d="M474.94,162.32l82.15,7.45"/><path id="polyline14485" class="cls-4" d="M572.71,172.22l-26.36.12"/><path id="polyline14487" class="cls-4" d="M541.36,168.16l31.35,4.06"/><path id="polyline14489" class="cls-4" d="M450.53,149.92l19.31,1.25,34.83,1.94,42.27,2.31,25.47,1.23,36.4,3.15L662.95,164l20.38,4.24"/><path id="polyline14491" class="cls-4" d="M684.34,168.27h-1v2.67h1"/><path id="path14493" class="cls-3" d="M684.34,170.95a1.34,1.34,0,0,0,0-2.67"/><path id="polyline14495" class="cls-4" d="M683.33,170.95l-.6.69-1.6.26L675,172l-8.94-.32-12.37-.51-15.17-.95"/><path id="polyline14497" class="cls-4" d="M638.57,170.24V164"/><path id="polyline14499" class="cls-4" d="M638.57,167.14l44.76,1.13"/><path id="polyline14501" class="cls-4" d="M638.57,164l-176.18-10.7"/><path id="polyline14503" class="cls-4" d="M600.39,167.69v2.57"/><path id="polyline14505" class="cls-4" d="M597.33,170.25l-.47-2.63"/><path id="polyline14507" class="cls-4" d="M600.39,169.55h1.68v-1.83"/><path id="path14509" class="cls-3" d="M597.33,170.25a1.53,1.53,0,0,0,3.06,0"/><path id="polyline14511" class="cls-4" d="M558.33,166.45v1.3h2.49v-1.17"/><path id="path14513" class="cls-3" d="M533.84,164.92a1.74,1.74,0,1,0,3.47.22"/><path id="polyline14515" class="cls-4" d="M559.53,172.51l0-2.44"/><path id="polyline14517" class="cls-4" d="M560.09,166.54l-.34-2-1-2.05-2.48-2.31-2.09-1.26"/><path id="polyline14519" class="cls-4" d="M499,163.05a7.59,7.59,0,0,0-.55-1.72,9.33,9.33,0,0,0-2.17-2.28,23.23,23.23,0,0,0-2.61-1.71c-1.29-.81-3.92-2.35-3.92-2.35"/><path id="polyline14521" class="cls-2" d="M450,102.39l1.26,6.38.58,6.8"/><path id="polyline14523" class="cls-4" d="M452.6,121.14a7.2,7.2,0,0,1-.78,2.17,2.52,2.52,0,0,1-.88.61c-.24.12-.5.37-.75.27-.44-.16-.46-.81-.68-1.23a10,10,0,0,0-.61-1.23,5.13,5.13,0,0,0-.61-.61"/><path id="polyline14525" class="cls-2" d="M450,102.39l-2.38,6.05L445.8,115"/><path id="polyline14527" class="cls-2" d="M444.34,120.17a6.43,6.43,0,0,0,.08,2.48,2.21,2.21,0,0,0,.76.76c.21.16.43.45.69.4.46-.08.6-.72.89-1.08a10,10,0,0,1,.82-1.1,5.11,5.11,0,0,1,.71-.49"/><path id="path14529" class="cls-3" d="M449,82.32a2,2,0,1,0-.5,4"/><path id="path14531" class="cls-3" d="M454.58,37.24a3.08,3.08,0,0,0-.68,5.5"/><path id="path14533" class="cls-3" d="M457.16,42.79a3.08,3.08,0,0,0,.29-5.06"/><path id="polyline14535" class="cls-4" d="M461,40.27l-2.38-.08"/><path id="polyline14537" class="cls-4" d="M452.49,40l-1.74-.06"/><path id="path14539" class="cls-3" d="M448.24,88.25a2.8,2.8,0,0,1-1.77-.39c-.35-.28-.31-.64.12-.93a3.33,3.33,0,0,1,1.87-.43"/><path id="polyline14541" class="cls-4" d="M450.06,140.08l-4.5.22"/><path id="polyline14543" class="cls-4" d="M447.52,151.5l1.6.26,1-.2.45-.4"/><path id="polyline14545" class="cls-4" d="M449.8,169.18a5.83,5.83,0,0,0,2-.54,5.74,5.74,0,0,0,2-2.88,12.91,12.91,0,0,0,.12-3.91"/><path id="polyline14547" class="cls-4" d="M458.42,21.09l-1.81-.16"/><path id="polyline14549" class="cls-4" d="M458.38,21.73l-1.85-.17"/><path id="polyline14551" class="cls-2" d="M316,132.75l-.45,1-1.24,3.92"/><path id="polyline14553" class="cls-2" d="M313.62,131.87a32.25,32.25,0,0,1-2.06,3.51,19.25,19.25,0,0,1-3.49,3.61,13.77,13.77,0,0,1-2.95,1.66,45.87,45.87,0,0,1-5,1.59c-2,.59-3.92,1.15-5.88,1.72-6.08,1.77-12.16,3.55-18.26,5.27a59.78,59.78,0,0,0-7.14,2,15.22,15.22,0,0,0-5,2.94,7.7,7.7,0,0,0-2.33,4,3.89,3.89,0,0,0,.61,2.7,5.06,5.06,0,0,0,2.21,1.47,40.46,40.46,0,0,0,8.7,2.33c1.35.28,4.09.58,4.09.58"/><path id="polyline14555" class="cls-2" d="M372.54,160.49l-.23-18.81"/><path id="polyline14573" class="cls-4" d="M440.76,148.34,459.15.48"/><path id="polyline14575" class="cls-4" d="M459.15.48l-.68,19.76"/><path id="polyline14577" class="cls-2" d="M447.16,133.62,459.15.48"/><path id="path14579" class="cls-3" d="M365.86,109.14a24.2,24.2,0,0,0-22.8-16.08"/><path id="path14581" class="cls-3" d="M362.11,119.33A31.72,31.72,0,0,0,343.06,113"/><path id="polyline14583" class="cls-4" d="M362.11,119.33s.8.55,2.17-.56a5,5,0,0,0,1.56-2.23,12,12,0,0,0,.47-3.22,10.19,10.19,0,0,0-.46-4.18"/><path id="polyline14585" class="cls-4" d="M335.4,186.47h-4.2"/><path id="polyline14587" class="cls-4" d="M350.73,186.47h4.2"/><path id="polyline14589" class="cls-2" d="M372.67,161.37l4.54-4.89"/><path id="polyline14591" class="cls-2" d="M377.21,156.48l5.69-7"/><path id="polyline14593" class="cls-2" d="M385.63,169.47a9.46,9.46,0,0,0,1.69-1.65,4.37,4.37,0,0,0,.74-2.22,5.37,5.37,0,0,0-.94-3,14.81,14.81,0,0,0-4.53-3.76,45.77,45.77,0,0,0-5.26-2.56"/><path id="polyline14595" class="cls-2" d="M436.27,155.63a12,12,0,0,1,.84,2.4,4.6,4.6,0,0,1-.18,2.76,4.79,4.79,0,0,1-1.65,1.25"/><path id="polyline14597" class="cls-2" d="M388.42,150.41l-5.22-2.6"/><path id="polyline14599" class="cls-2" d="M388.32,150.06l-5.2-2.59"/><path id="polyline14601" class="cls-2" d="M388.23,149.71l-5.17-2.58"/><path id="polyline14603" class="cls-2" d="M388.13,149.36,383,146.79"/><path id="polyline14605" class="cls-2" d="M388,149l-5.13-2.56"/><path id="polyline14607" class="cls-2" d="M387.94,148.65l-5.1-2.54"/><path id="polyline14609" class="cls-2" d="M387.84,148.3l-5.08-2.53"/><path id="polyline14611" class="cls-2" d="M387.74,148l-5.06-2.52"/><path id="polyline14613" class="cls-2" d="M387.65,147.6l-5-2.51"/><path id="polyline14615" class="cls-2" d="M387.55,147.25l-5-2.5"/><path id="polyline14617" class="cls-2" d="M387.46,146.9l-5-2.49"/><path id="polyline14619" class="cls-2" d="M387.36,146.55l-5-2.47"/><path id="polyline14621" class="cls-2" d="M384.56,144.24l-5-2.47"/><path id="polyline14623" class="cls-2" d="M384.55,144.08l-4.95-2.47"/><path id="polyline14625" class="cls-2" d="M384.53,143.92l-4.94-2.46"/><path id="polyline14627" class="cls-2" d="M384.52,143.76l-4.93-2.46"/><path id="polyline14629" class="cls-2" d="M384.5,143.61l-4.93-2.46"/><path id="polyline14631" class="cls-2" d="M384.49,143.45,379.57,141"/><path id="polyline14633" class="cls-2" d="M384.48,143.29l-4.91-2.45"/><path id="polyline14635" class="cls-2" d="M384.46,143.13l-4.9-2.45"/><path id="polyline14637" class="cls-2" d="M384.45,143l-4.9-2.44"/><path id="polyline14639" class="cls-2" d="M382.85,149.58c-1.06-1.21-2.44-2.2-3.17-3.63a31.7,31.7,0,0,1-2.33-7.53"/><path id="polyline14641" class="cls-2" d="M392,146.94l-5-2.47"/><path id="polyline14643" class="cls-2" d="M392,146.78l-4.95-2.47"/><path id="polyline14645" class="cls-2" d="M392,146.62,387,144.16"/><path id="polyline14647" class="cls-2" d="M392,146.46,387,144"/><path id="polyline14649" class="cls-2" d="M392,146.3,387,143.85"/><path id="polyline14651" class="cls-2" d="M391.95,146.15,387,143.69"/><path id="polyline14653" class="cls-2" d="M391.93,146,387,143.54"/><path id="polyline14655" class="cls-2" d="M391.92,145.83l-4.9-2.45"/><path id="polyline14657" class="cls-2" d="M391.9,145.67l-4.9-2.44"/><path id="ellipse14659" class="cls-4" d="M380,135.71a1.27,1.27,0,1,1-1.27,1.27A1.27,1.27,0,0,1,380,135.71Z"/><path id="polyline14661" class="cls-4" d="M375.43,136.48l3.33.45"/><path id="polyline14663" class="cls-4" d="M313.12,131.67l3.19,1.19,1.26.28.63-.21.32-.79-.26-.81-.77-.9-1.6-.51-3.29,0"/><path id="polyline14821" class="cls-2" d="M249.85,155.63A11.93,11.93,0,0,0,249,158a5.24,5.24,0,0,0,.18,2.76,6.42,6.42,0,0,0,1.55,1.65"/><path id="path12020" class="cls-1" d="M274.66,188.17a31.36,31.36,0,0,0,1.43-6.64"/><path id="path12082" class="cls-4" d="M411.4,188.2a30.17,30.17,0,0,1-1.29-7s.62-3.07,1.57-4c.78-.78,2.18-.58,3.08-1.23a7.27,7.27,0,0,0,1.54-1.85,15.08,15.08,0,0,1,1.23-2.16,10.42,10.42,0,0,1,3.08-1.85,25.15,25.15,0,0,1,5-1.85c1.78-.42,3.66-.23,5.44-.62a19.9,19.9,0,0,0,5.64-1.85,15.22,15.22,0,0,0,2.36-2.05c1.54-1.36,4.6-4.13,4.6-4.13"/><path id="path12091" class="cls-2" d="M368.4,109.11c3.18,6.39,2.71,13.71,3.61,20.61.19,6.59,8,11.74,14.83,12.76,11,3.51,22.42,5.93,33.28,10,2.59,1.46,5.32,4.54,4.1,7.7-1.53,2.78-5.06,3.25-7.88,3.88a65.37,65.37,0,0,1-7.29,1.24"/><path id="path12103" class="cls-1" d="M368.4,109.11c3.18,6.39,2.71,13.71,3.61,20.61a10.47,10.47,0,0,0,3.15,6.85"/></g></g></svg>