<svg xmlns="http://www.w3.org/2000/svg" viewBox="0 0 891.89 325.34"><defs><style>.cls-1,.cls-2{fill:none;stroke:#000;stroke-linecap:round;stroke-linejoin:round;}.cls-1{stroke-width:1.5px;}.cls-2{stroke-width:0.7px;}</style></defs><title>su27</title><g id="Layer_2" data-name="Layer 2"><g id="Layer_1-2" data-name="Layer 1"><path id="_2" data-name="2" class="cls-1" d="M578.83,241.71h304"/><path id="_3" data-name="3" class="cls-2" d="M485.09,243c-.37-15.73-11.28-30.42-26.16-35.47a39.89,39.89,0,0,0-13-2.2"/><path id="_13" data-name="13" class="cls-1" d="M446.46,265.72h-.52"/><path id="_76" data-name="76" class="cls-1" d="M472.31,155.65c.29-12.78-10-24.61-22.67-26.13a29.85,29.85,0,0,0-3.7-.24"/><path id="_548" data-name="548" class="cls-1" d="M472.31,154.77v31.76"/><path id="_549" data-name="549" class="cls-1" d="M472.31,157.5c.29-12.52-9.57-24.13-21.93-26a26.54,26.54,0,0,0-4.44-.36"/><path id="_550" data-name="550" class="cls-1" d="M472.31,159.94c.28-12.52-9.6-24.08-21.93-26a26.52,26.52,0,0,0-4.44-.36"/><path id="_551" data-name="551" class="cls-2" d="M484.43,248.87c3.43-16.4-5.24-34.33-20.17-41.91a38.7,38.7,0,0,0-18.32-4.55"/><path id="_552" data-name="552" class="cls-1" d="M445.94,196.87h23"/><path id="_553" data-name="553" class="cls-1" d="M469,196.87a19.19,19.19,0,0,0,.22-21.13c-4.91-8.09-13.56-14.66-23.27-15"/><path id="_554" data-name="554" class="cls-1" d="M445.94,283.3c15.56.08,30.12-10.46,35.75-24.82A44,44,0,0,0,484,232.11"/><path id="_555" data-name="555" class="cls-1" d="M447.35,266l-.07-.81-.52-.66-.81-.22"/><path id="_556" data-name="556" class="cls-1" d="M445.94,271l.37-.22.15-.37-.15-.37-.37-.15"/><path id="_557" data-name="557" class="cls-1" d="M446.46,270.59l.89-4.58"/><path id="_558" data-name="558" class="cls-1" d="M472.31,183.65c0-9.73-7.21-18-15.29-22.68a23.52,23.52,0,0,0-11.08-3.18"/><path id="_559" data-name="559" class="cls-1" d="M477.34,189.71V165.85"/><path id="_576" data-name="576" class="cls-1" d="M891.14,233.44v19.8h-8.27v-19.8Z"/><path id="_577" data-name="577" class="cls-1" d="M882.86,235.87,592.94,224.35"/><path id="_578" data-name="578" class="cls-2" d="M568.78,243.19V223.32"/><path id="_579" data-name="579" class="cls-2" d="M847.11,236.17v5.54"/><path id="_580" data-name="580" class="cls-1" d="M558,225.83v-3.25"/><path id="_581" data-name="581" class="cls-2" d="M504.3,252.64a180.16,180.16,0,0,0,33.09-7.46"/><path id="_582" data-name="582" class="cls-2" d="M535.4,233.44c-7.85-6.23-16.13-12.43-25.11-17.14-10.63-5.87-18.2-16.4-21.27-28.07-2.1-7.58-4.86-15.21-10.38-21a70.2,70.2,0,0,0-6.32-6.32"/><path id="_583" data-name="583" class="cls-2" d="M537.39,245.18c1.95-.65,4.78-2.48,3.55-4.87-1.24-2.7-3.63-4.65-5.54-6.87"/><path id="_584" data-name="584" class="cls-2" d="M485,241.71c-.15-9.8,1.8-20.07-2.07-29.4-2.84-6.59-8.3-11.31-14-15.44"/><path id="_585" data-name="585" class="cls-1" d="M471.94,189.71h5.39"/><path id="_586" data-name="586" class="cls-2" d="M477.34,189.71l-4.65,23.19"/><path id="_587" data-name="587" class="cls-2" d="M568.37,238.67c-6.35.07-39.83,3.61-46.17,4q-13.85,1.15-27.69,2.45c-3.22.17-6.43.52-9.65.68"/><path id="_588" data-name="588" class="cls-1" d="M592.94,224.35l-1.4-.07L590,224.2l-3-.07-3.18-.15-3.25-.07-3.25-.15-3.4-.15-3.4-.22-3.47-.22-6.94-.44-7-.52-3.47-.3-3.47-.37-3.4-.37-3.32-.37-3.32-.44-3.25-.44-3.1-.52-3.1-.52-1.48-.3-1.4-.22-1.48-.3-1.4-.37-1.33-.3-1.33-.3-1.33-.37-1.26-.3-1.26-.37-1.18-.37-1.18-.37-1.11-.37-1-.37-1-.44-1-.37-1-.44-.89-.44-.81-.44-.81-.44-.74-.44-.66-.52-.59-.52-.59-.44-.52-.52"/><path id="_589" data-name="589" class="cls-2" d="M558,225.83l324.87,11.6"/><path id="_590" data-name="590" class="cls-2" d="M758.55,241.71a8.07,8.07,0,0,0,1.55-.3c.31-.12.72-.23.89-.52.27-.11.24-.37.37-.59a3.8,3.8,0,0,0-.3-.81,4.19,4.19,0,0,0-.76-.91c-.32-.36-.7-.58-1-.9s-.87-.64-1.33-.92c-.59-.47-1.34-.7-1.92-1.18-.59-.22-1.12-.58-1.68-.85s-1.15-.57-1.76-.77-1.13-.34-1.66-.63-1-.32-1.55-.48c-.28,0-.53-.18-.81-.15"/><path id="_591" data-name="591" class="cls-2" d="M568.78,238.38l314.08,2.36"/><path id="_601" data-name="601" class="cls-1" d="M740.52,274.21l-158.44,4.14"/><path id="_602" data-name="602" class="cls-1" d="M740.52,271.85,582.3,267.64"/><path id="_603" data-name="603" class="cls-1" d="M740.52,274.21l.59-.15.44-.44.15-.59-.15-.59-.44-.37-.59-.22"/><path id="_604" data-name="604" class="cls-1" d="M481.62,258.77l8.49,57.84.3,1,.52.89.74.74.89.52,1,.22h1l49-7.24,1-.3.89-.52.66-.74.52-.89.3-1-.07-1-5.69-38.78"/><path id="_605" data-name="605" class="cls-1" d="M546,300.8a40.16,40.16,0,0,0,8.17-10.26,41.6,41.6,0,0,0,3.65-8.87"/><path id="_606" data-name="606" class="cls-1" d="M495.8,283.52a28.81,28.81,0,0,0,8.92,5.87,28.38,28.38,0,0,0,12.75,2.29,29.45,29.45,0,0,0,12.08-3.08,45.32,45.32,0,0,0,4.21-2.57"/><path id="_607" data-name="607" class="cls-1" d="M491.59,310.85l44.84-6.57"/><path id="_608" data-name="608" class="cls-1" d="M536.43,304.28l-2.88-19.72"/><path id="_609" data-name="609" class="cls-1" d="M483.76,257.89l7.83,53"/><path id="_610" data-name="610" class="cls-1" d="M578.83,241.71l-96.1,14.11"/><path id="_611" data-name="611" class="cls-1" d="M531.41,250.94l-47.64,6.94"/><path id="_612" data-name="612" class="cls-1" d="M481.92,260.77l-.81,3.62-.52,3.62-.15,3.62.22,3.62.52,3.62.89,3.55,1.18,3.47,1.48,3.32,1.85,3.18"/><path id="_613" data-name="613" class="cls-1" d="M487.6,284.11l43.21-3"/><path id="_614" data-name="614" class="cls-1" d="M485.24,268.08l43.21-3"/><path id="_615" data-name="615" class="cls-1" d="M483.91,259.44l43.29-3.1"/><path id="_616" data-name="616" class="cls-1" d="M526.53,251.61l4.88,33.31,4.88-.74-4.88-33.24"/><path id="_618" data-name="618" class="cls-1" d="M573.66,223.54,579.49.75"/><path id="_619" data-name="619" class="cls-1" d="M582.82,224,581.34.75"/><path id="_620" data-name="620" class="cls-1" d="M579.49.75h1.85"/><path id="_621" data-name="621" class="cls-2" d="M492,254.49c2.87-2.63,7.33-4.55,8-8.79-.18-5.29-3.85-9.58-5.76-14.33-3.37-6.64-2.71-14.22-3.61-21.38-1.26-8.92-7-16.57-13.23-22.72"/><path id="_622" data-name="622" class="cls-1" d="M483.76,174.27l9.38-7,1.55,2.07-9.75,7.24"/><path id="_623" data-name="623" class="cls-1" d="M581,324.59h-1.4"/><path id="_624" data-name="624" class="cls-1" d="M582.89,241.71,581,324.59"/><path id="_625" data-name="625" class="cls-1" d="M579.05,269.26l.52,55.33"/><path id="_626" data-name="626" class="cls-1" d="M557.78,281.67H579.2"/><path id="_627" data-name="627" class="cls-1" d="M557.78,281.67c6,0,12.32-1.55,16.74-5.82,3.54-3.45,5.56-8.14,6.69-12.89a73.3,73.3,0,0,0,1.69-15.24v-6"/><path id="_628" data-name="628" class="cls-1" d="M557.78,281.67a44.53,44.53,0,0,1-15.37-11,49,49,0,0,1-7-9.68,42.57,42.57,0,0,1-4-10"/><path id="_629" data-name="629" class="cls-1" d="M556.08,280.71c4.67-.08,9.52-.83,13.52-3.4a19.16,19.16,0,0,0,6.07-6c2.9-4.56,4.26-9.93,4.89-15.26a120,120,0,0,0,.64-14.38"/><path id="_630" data-name="630" class="cls-1" d="M577.5,267.86l.15-.52.15-.44.07-.52.07-.52.07-1,.07-1v-2l-.07-1-.15-.89-.22-.89-.15-.89-.3-.89-.3-.81-.37-.81-.37-.81-.37-.74-.44-.74-.52-.74-.52-.66-.52-.66-.59-.67-.59-.59-.66-.67-.74-.59-.74-.59-.74-.59-.81-.52-.81-.59-.89-.52-.89-.52-1-.52-1-.52-1-.52"/><path id="_631" data-name="631" class="cls-2" d="M550.32,277.53a36.65,36.65,0,0,0,16.9-5.41c2.92-1.9,5.69-4.29,7.16-7.52,1.72-4.2.91-8.92-.54-13.08l-.06-.15-.05-.14"/><path id="_632" data-name="632" class="cls-2" d="M541.6,269.56A36.88,36.88,0,0,0,559,263.87c3.32-2.21,6.49-5.22,7.35-9.26a11.77,11.77,0,0,0-1.91-9.43c-.32-.39-.59-.82-.94-1.18"/><path id="_633" data-name="633" class="cls-1" d="M497.8,283.44l-1,1"/><path id="_634" data-name="634" class="cls-1" d="M502.23,283.07l-2.44,3.62"/><path id="_635" data-name="635" class="cls-1" d="M505.85,282.85,503,288.62"/><path id="_636" data-name="636" class="cls-1" d="M509,282.63,506.37,290"/><path id="_637" data-name="637" class="cls-1" d="M511.76,282.41l-1.85,8.64"/><path id="_638" data-name="638" class="cls-1" d="M514.42,282.26l-.89,9.38"/><path id="_639" data-name="639" class="cls-1" d="M516.86,282l.37,9.68"/><path id="_640" data-name="640" class="cls-1" d="M519.37,281.89l1.48,9.46"/><path id="_641" data-name="641" class="cls-1" d="M521.88,281.75l2.59,8.86"/><path id="_642" data-name="642" class="cls-1" d="M524.54,281.52l3.4,7.83"/><path id="_643" data-name="643" class="cls-1" d="M527.49,281.3l3.69,6.35"/><path id="_644" data-name="644" class="cls-1" d="M530.74,281.08l.07.07"/><path id="_654" data-name="654" class="cls-1" d="M313.06,241.71H9.1"/><path id="_655" data-name="655" class="cls-2" d="M445.94,205.37c-16.6-.23-32.54,11.32-37.3,27.26A38.6,38.6,0,0,0,406.79,243"/><path id="_657" data-name="657" class="cls-1" d="M445.43,265.72h.52"/><path id="_665" data-name="665" class="cls-1" d="M445.94,129.28c-12.5-.26-24.17,9.55-26,21.93a26.55,26.55,0,0,0-.36,4.44"/><path id="_929" data-name="929" class="cls-1" d="M419.57,154.77v31.76"/><path id="_930" data-name="930" class="cls-1" d="M445.94,131.13c-12.76-.26-24.62,10-26.13,22.67a29.82,29.82,0,0,0-.24,3.7"/><path id="_931" data-name="931" class="cls-1" d="M445.94,133.57c-13-.25-25,10.43-26.22,23.42-.1,1-.12,2-.15,3"/><path id="_932" data-name="932" class="cls-2" d="M445.94,202.41c-16.44-.25-32.18,11.09-37.16,26.76a39.25,39.25,0,0,0-1.33,19.7"/><path id="_933" data-name="933" class="cls-1" d="M445.94,196.87h-23"/><path id="_934" data-name="934" class="cls-1" d="M422.9,196.87a19.31,19.31,0,0,1,.22-21.79c4.91-7.76,13.4-14,22.82-14.33"/><path id="_935" data-name="935" class="cls-1" d="M445.94,283.3c-14.84,0-28.83-9.51-34.91-22.92a43.78,43.78,0,0,1-3.13-28.27"/><path id="_936" data-name="936" class="cls-1" d="M445.94,264.31l-.81.22-.52.66-.07.81"/><path id="_937" data-name="937" class="cls-1" d="M445.94,269.93l-.37.15-.15.37.15.37.37.22"/><path id="_938" data-name="938" class="cls-1" d="M445.43,270.59l-.89-4.58"/><path id="_939" data-name="939" class="cls-1" d="M419.57,183.65c.09-10.4,8.1-19.13,17-23.56a22.66,22.66,0,0,1,9.38-2.29"/><path id="_940" data-name="940" class="cls-1" d="M414.55,189.71V165.85"/><path id="_953" data-name="953" class="cls-1" d="M.75,233.44v19.8H9.1v-19.8Z"/><path id="_954" data-name="954" class="cls-1" d="M9.1,235.87l289.85-11.52"/><path id="_955" data-name="955" class="cls-2" d="M323.18,243.19V223.32"/><path id="_956" data-name="956" class="cls-2" d="M44.77,236.17v5.54"/><path id="_957" data-name="957" class="cls-2" d="M333.89,225.83v-3.25"/><path id="_958" data-name="958" class="cls-2" d="M387.59,252.64a180.83,180.83,0,0,1-33.09-7.46"/><path id="_959" data-name="959" class="cls-2" d="M356.49,233.44c7.91-6.33,16.11-12.38,25.09-17.13,10.65-5.79,18.13-16.36,21.25-28,2.22-7.59,4.86-15.36,10.47-21.18a84.48,84.48,0,0,1,6.27-6.27"/><path id="_960" data-name="960" class="cls-2" d="M354.5,245.18c-6-1.28-3.25-7.31.17-9.77.58-.68,1.21-1.32,1.82-2"/><path id="_961" data-name="961" class="cls-2" d="M406.87,241.71c.06-10.06-2.39-20.85,2.49-30.22,3.12-6,8.29-10.54,13.54-14.62"/><path id="_962" data-name="962" class="cls-1" d="M419.94,189.71h-5.39"/><path id="_963" data-name="963" class="cls-2" d="M414.55,189.71l4.65,23.19"/><path id="_964" data-name="964" class="cls-2" d="M323,238.67c11.46.21,50.56,4.39,62,5.34,7.37.68,14.75,1.34,22.14,1.83"/><path id="_965" data-name="965" class="cls-1" d="M298.95,224.35c20.89-.74,41.85-1.61,62.54-4.83,9.15-1.59,18.65-3.17,26.77-7.95.83-.62,1.58-1.33,2.36-2"/><path id="_966" data-name="966" class="cls-2" d="M333.89,225.83,9.1,237.42"/><path id="_967" data-name="967" class="cls-2" d="M133.34,241.71l-1-.15-.89-.3-.59-.37-.15-.3-.07-.22v-.3l.07-.3.44-.74.74-.74,1-.74,1.11-.81,1.26-.74,2.81-1.48,1.48-.66,1.4-.52,1.26-.44,1.26-.22"/><path id="_968" data-name="968" class="cls-2" d="M323.18,238.38,9.1,240.75"/><path id="_982" data-name="982" class="cls-1" d="M151.36,274.21l158.44,4.14"/><path id="_983" data-name="983" class="cls-1" d="M151.36,271.85l158.22-4.21"/><path id="_984" data-name="984" class="cls-1" d="M151.36,271.85l-.59.22-.44.37-.15.59.15.59.44.44.59.15"/><path id="_985" data-name="985" class="cls-1" d="M410.27,258.77l-8.49,57.84"/><path id="_986" data-name="986" class="cls-1" d="M397.27,319.94h1l1-.22.89-.52.74-.74.59-.89.22-1"/><path id="_987" data-name="987" class="cls-1" d="M397.27,319.94l-49-7.24"/><path id="_988" data-name="988" class="cls-1" d="M344.89,308.19l-.07,1,.3,1,.52.89.66.74.89.52,1,.3"/><path id="_989" data-name="989" class="cls-1" d="M344.89,308.19l5.69-38.78"/><path id="_990" data-name="990" class="cls-1" d="M334.11,281.67a39.33,39.33,0,0,0,11.82,19.13"/><path id="_991" data-name="991" class="cls-1" d="M358.12,286a29.72,29.72,0,0,0,15.69,5.62,27.21,27.21,0,0,0,10.74-1.31,27.49,27.49,0,0,0,10.24-5.7l1.3-1.13"/><path id="_992" data-name="992" class="cls-1" d="M400.29,310.85l-44.84-6.57"/><path id="_993" data-name="993" class="cls-1" d="M355.46,304.28l2.88-19.72"/><path id="_994" data-name="994" class="cls-1" d="M408.12,257.89l-7.83,53"/><path id="_995" data-name="995" class="cls-1" d="M313.06,241.71l96.1,14.11"/><path id="_996" data-name="996" class="cls-1" d="M360.48,250.94l47.64,6.94"/><path id="_997" data-name="997" class="cls-1" d="M405.32,292.38l1.85-3.18,1.48-3.32,1.18-3.47.89-3.55.52-3.62.22-3.62L411.3,268l-.52-3.62-.81-3.62"/><path id="_998" data-name="998" class="cls-1" d="M404.28,284.11l-43.21-3"/><path id="_999" data-name="999" class="cls-1" d="M406.65,268.08l-43.21-3"/><path id="_1000" data-name="1000" class="cls-1" d="M408,259.44l-43.29-3.1"/><path id="_1001" data-name="1001" class="cls-1" d="M365.43,251.61l-4.95,33.31-4.88-.74,4.88-33.24"/><path id="_1002" data-name="1002" class="cls-1" d="M318.23,223.54,312.39.75"/><path id="_1003" data-name="1003" class="cls-1" d="M309.07,224,310.55.75"/><path id="_1004" data-name="1004" class="cls-1" d="M312.39.75h-1.85"/><path id="_1005" data-name="1005" class="cls-2" d="M399.92,254.49c-3.37-2.84-9.08-5.68-7.77-11,2.39-7.46,7.82-13.91,8.25-22,.56-7.63.5-15.75,4.79-22.43a53.41,53.41,0,0,1,9.35-11.79"/><path id="_1006" data-name="1006" class="cls-1" d="M408.12,174.27l-9.38-7-1.55,2.07,9.75,7.24"/><path id="_1007" data-name="1007" class="cls-1" d="M310.92,324.59h1.4"/><path id="_1008" data-name="1008" class="cls-1" d="M309,241.71l1.92,82.88"/><path id="_1009" data-name="1009" class="cls-1" d="M312.84,269.26l-.52,55.33"/><path id="_1010" data-name="1010" class="cls-1" d="M334.11,281.67H312.69"/><path id="_1011" data-name="1011" class="cls-1" d="M334.11,281.67c-7,.1-14.67-2.27-18.84-8.27-4.85-6.62-5.7-15.13-6.2-23.07-.15-2.87-.05-5.75-.08-8.62"/><path id="_1012" data-name="1012" class="cls-1" d="M334.11,281.67a46.79,46.79,0,0,0,20.23-17.17,44.6,44.6,0,0,0,6.14-13.56"/><path id="_1013" data-name="1013" class="cls-1" d="M335.81,280.71c-6.31,0-13-1.75-17.39-6.53-5.61-6.12-6.89-14.76-7.51-22.73-.19-3.25-.25-6.5-.22-9.75"/><path id="_1014" data-name="1014" class="cls-1" d="M314.39,267.86a18.34,18.34,0,0,1,7-19.58,46.44,46.44,0,0,1,7-4.28"/><path id="_1015" data-name="1015" class="cls-2" d="M341.57,277.53a35.51,35.51,0,0,1-19-7c-3.59-2.54-6.2-6.68-6-11.18a22.66,22.66,0,0,1,1.69-8.16"/><path id="_1016" data-name="1016" class="cls-2" d="M350.29,269.56a35.94,35.94,0,0,1-19.12-6.95c-3.82-2.82-6.68-7.57-5.7-12.45a11.94,11.94,0,0,1,2.95-6.16"/><path id="_1017" data-name="1017" class="cls-1" d="M394.09,283.44l1,1"/><path id="_1018" data-name="1018" class="cls-1" d="M389.66,283.07l2.44,3.62"/><path id="_1019" data-name="1019" class="cls-1" d="M386,282.85l2.88,5.76"/><path id="_1020" data-name="1020" class="cls-1" d="M382.94,282.63l2.59,7.39"/><path id="_1021" data-name="1021" class="cls-1" d="M380.13,282.41l1.85,8.64"/><path id="_1022" data-name="1022" class="cls-1" d="M377.47,282.26l.89,9.38"/><path id="_1023" data-name="1023" class="cls-1" d="M375,282l-.37,9.68"/><path id="_1024" data-name="1024" class="cls-1" d="M372.52,281.89,371,291.35"/><path id="_1025" data-name="1025" class="cls-1" d="M370,281.75l-2.59,8.86"/><path id="_1026" data-name="1026" class="cls-1" d="M367.35,281.52l-3.4,7.83"/><path id="_1027" data-name="1027" class="cls-1" d="M364.4,281.3l-3.69,6.35"/><path id="_1028" data-name="1028" class="cls-1" d="M361.14,281.08l-.07.07"/><path id="_1042" data-name="1042" class="cls-1" d="M452,196.87v-6.5"/><path id="_1043" data-name="1043" class="cls-1" d="M465,196.87a6.58,6.58,0,0,0,1.85-1.88,6.78,6.78,0,0,0,1.14-2.47,7.31,7.31,0,0,0,.33-2.74,11.82,11.82,0,0,0-.68-2.68,8.52,8.52,0,0,0-1.76-2.57,9.59,9.59,0,0,0-2.75-1.8,9.13,9.13,0,0,0-3.16-.57,9.47,9.47,0,0,0-3,.62,8.19,8.19,0,0,0-3.31,2.52,9.16,9.16,0,0,0-1.57,3.29,9,9,0,0,0,.2,4.2,8,8,0,0,0,1.28,2.45,7.69,7.69,0,0,0,1.63,1.63"/><path id="path11003" class="cls-1" d="M389.49,210.65a46.76,46.76,0,0,0,13.34-22.3c2.22-7.59,4.86-15.36,10.47-21.18a84.48,84.48,0,0,1,6.27-6.27"/><path id="path11033" class="cls-1" d="M500.83,209.45c-4.11-5.11-10.15-14.87-11.82-21.23-2.1-7.58-4.86-15.21-10.38-21a70.2,70.2,0,0,0-6.32-6.32"/></g></g></svg>